{"glyphs":{"0":{"ha":836,"x_min":95,"x_max":742,"o":"m 418 -14 q 245 48 317 -14 q 133 227 172 110 q 95 505 95 343 q 134 783 95 667 q 245 962 173 900 q 418 1024 317 1024 q 592 962 519 1024 q 703 783 664 900 q 742 505 742 667 q 703 227 742 343 q 592 48 664 110 q 418 -14 519 -14 m 418 43 q 611 165 541 43 q 681 505 681 288 q 649 754 681 650 q 559 912 618 857 q 418 967 500 967 q 225 845 295 967 q 155 505 155 723 q 187 257 155 360 q 277 98 218 153 q 418 43 336 43 z "},"1":{"ha":592,"x_min":94,"x_max":389,"o":"m 389 1010 l 389 0 l 327 0 l 327 945 l 321 945 l 94 795 l 94 861 l 319 1010 l 389 1010 z "},"2":{"ha":855,"x_min":120,"x_max":739,"o":"m 120 0 l 120 47 l 447 424 q 558 561 517 505 q 617 662 599 617 q 635 757 635 708 q 606 866 635 819 q 527 941 577 914 q 415 967 478 967 q 299 938 349 967 q 221 859 249 909 q 193 747 193 809 l 134 747 q 170 888 134 826 q 271 987 207 951 q 416 1024 334 1024 q 559 989 497 1024 q 658 893 622 954 q 694 757 694 833 q 675 650 694 701 q 610 535 656 598 q 483 379 564 472 l 209 63 l 209 57 l 739 57 l 739 0 l 120 0 z "},"3":{"ha":863,"x_min":121,"x_max":749,"o":"m 436 -14 q 275 20 346 -14 q 164 115 205 55 q 121 253 122 175 l 183 253 q 218 144 185 191 q 309 70 252 97 q 435 43 365 43 q 567 73 510 43 q 656 153 624 103 q 688 266 688 204 q 653 384 688 333 q 555 463 618 435 q 410 491 493 491 l 372 491 l 372 548 l 410 548 q 536 574 480 548 q 624 648 592 600 q 656 760 656 695 q 628 867 656 820 q 551 941 600 914 q 435 967 501 967 q 318 941 370 967 q 236 868 266 915 q 205 758 205 820 l 144 758 q 184 896 145 836 q 288 990 222 956 q 436 1024 353 1024 q 583 989 519 1024 q 681 894 646 954 q 717 762 717 835 q 668 611 717 674 q 537 525 619 549 l 537 519 q 692 430 635 498 q 749 266 749 363 q 709 124 749 187 q 598 23 668 60 q 436 -14 527 -14 z "},"4":{"ha":848,"x_min":95,"x_max":753,"o":"m 95 227 l 95 276 l 552 1010 l 590 1010 l 590 915 l 558 915 l 170 290 l 170 284 l 753 284 l 753 227 l 95 227 m 563 0 l 563 244 l 563 266 l 563 1010 l 623 1010 l 623 0 l 563 0 z "},"5":{"ha":810,"x_min":113,"x_max":707,"o":"m 395 -14 q 251 20 314 -14 q 151 115 187 55 q 113 253 114 175 l 174 253 q 237 102 176 161 q 395 43 299 43 q 526 79 469 43 q 614 177 582 115 q 646 316 646 238 q 611 459 646 398 q 519 553 577 520 q 391 587 461 587 q 288 567 336 587 q 205 516 239 547 l 136 526 l 195 1010 l 669 1010 l 669 953 l 248 953 l 202 575 l 207 575 q 291 626 242 606 q 398 645 340 645 q 553 604 483 645 q 665 488 623 562 q 706 316 707 414 q 666 147 706 221 q 556 29 626 73 q 395 -14 485 -14 z "},"6":{"ha":828,"x_min":105,"x_max":724,"o":"m 422 -14 q 301 14 358 -13 q 200 97 244 40 q 130 244 155 154 q 105 460 105 334 q 123 675 105 573 q 180 855 141 776 q 281 979 218 934 q 434 1024 344 1024 q 571 990 511 1024 q 666 896 630 956 q 709 758 701 836 l 648 758 q 582 908 637 850 q 434 967 526 967 q 233 838 302 967 q 164 472 164 710 l 169 472 q 228 555 189 519 q 317 612 266 591 q 424 632 368 632 q 574 590 506 632 q 683 475 642 548 q 724 310 724 402 q 686 149 724 222 q 580 30 648 75 q 422 -14 512 -14 m 422 43 q 545 79 491 43 q 631 176 600 115 q 663 310 663 236 q 630 444 663 384 q 542 539 598 504 q 418 575 487 575 q 317 553 363 575 q 237 492 271 531 q 189 404 204 454 q 180 300 173 355 q 225 163 191 220 q 309 74 258 106 q 422 43 359 43 z "},"7":{"ha":771,"x_min":76,"x_max":683,"o":"m 146 0 l 616 947 l 616 953 l 76 953 l 76 1010 l 683 1010 l 683 951 l 213 0 l 146 0 z "},"8":{"ha":843,"x_min":98,"x_max":745,"o":"m 422 -14 q 256 23 330 -14 q 140 122 183 60 q 98 263 98 185 q 125 379 98 325 q 198 471 151 433 q 305 522 245 509 l 305 527 q 181 616 229 551 q 133 763 133 681 q 171 896 133 837 q 275 989 209 955 q 422 1024 340 1024 q 567 990 502 1024 q 672 896 633 955 q 710 763 710 837 q 663 616 710 682 q 538 527 615 551 l 538 522 q 644 472 598 510 q 718 379 691 434 q 745 263 745 325 q 702 122 745 185 q 586 23 659 60 q 422 -14 513 -14 m 422 43 q 556 73 497 43 q 650 153 616 103 q 684 266 684 204 q 649 382 684 330 q 555 464 614 434 q 422 495 496 495 q 288 464 347 495 q 194 382 228 434 q 159 266 159 330 q 193 153 159 204 q 287 73 227 103 q 422 43 346 43 m 422 548 q 537 577 485 548 q 619 654 588 605 q 650 761 650 702 q 619 867 650 820 q 537 940 589 913 q 422 967 486 967 q 305 940 357 967 q 223 867 254 913 q 193 761 193 820 q 224 654 193 702 q 306 577 254 605 q 422 548 358 548 z "},"9":{"ha":828,"x_min":105,"x_max":724,"o":"m 406 1024 q 527 997 470 1024 q 629 913 584 970 q 698 767 673 857 q 724 552 724 678 q 706 337 724 439 q 649 156 688 235 q 547 32 610 77 q 395 -14 484 -14 q 257 20 316 -14 q 162 115 198 54 q 119 254 126 175 l 180 254 q 246 103 190 162 q 395 43 302 43 q 595 172 525 43 q 664 541 664 301 l 659 541 q 600 457 639 493 q 511 400 562 421 q 404 380 460 380 q 254 422 322 380 q 145 537 185 464 q 105 702 105 610 q 142 863 105 789 q 248 980 180 936 q 406 1024 316 1024 m 406 967 q 282 931 337 967 q 197 836 228 896 q 165 702 165 775 q 198 568 165 628 q 285 473 230 508 q 410 437 341 437 q 511 459 465 437 q 591 520 557 481 q 640 608 624 559 q 648 712 655 658 q 603 848 637 791 q 520 936 570 905 q 406 967 469 967 z "},"A":{"ha":884,"x_min":42,"x_max":842,"o":"m 107 0 l 42 0 l 406 1010 l 477 1010 l 842 0 l 777 0 l 444 931 l 439 931 l 107 0 m 199 380 l 685 380 l 685 323 l 199 323 l 199 380 z "},"Ä":{"ha":884,"x_min":42,"x_max":842,"o":"m 107 0 l 42 0 l 406 1010 l 477 1010 l 842 0 l 777 0 l 444 931 l 439 931 l 107 0 m 199 380 l 685 380 l 685 323 l 199 323 l 199 380 m 331 1144 q 298 1159 313 1144 q 284 1192 284 1173 q 298 1225 284 1211 q 331 1239 313 1239 q 365 1225 351 1239 q 379 1192 379 1211 q 365 1159 379 1173 q 331 1144 351 1144 m 552 1144 q 519 1159 534 1144 q 505 1192 505 1173 q 519 1225 505 1211 q 552 1239 534 1239 q 586 1225 572 1239 q 600 1192 600 1211 q 586 1159 600 1173 q 552 1144 572 1144 z "},"Ã":{"ha":884,"x_min":42,"x_max":842,"o":"m 107 0 l 42 0 l 406 1010 l 477 1010 l 842 0 l 777 0 l 444 931 l 439 931 l 107 0 m 199 380 l 685 380 l 685 323 l 199 323 l 199 380 m 262 1141 l 211 1145 q 254 1236 215 1201 q 347 1272 292 1272 q 403 1260 379 1272 q 447 1234 427 1249 q 488 1208 467 1220 q 536 1197 509 1197 q 593 1218 568 1197 q 624 1273 619 1240 l 675 1265 q 628 1176 667 1210 q 538 1142 589 1142 q 483 1154 506 1142 q 441 1180 461 1165 q 401 1206 422 1195 q 349 1217 380 1217 q 290 1196 314 1217 q 262 1141 265 1174 z "},"À":{"ha":884,"x_min":42,"x_max":842,"o":"m 107 0 l 42 0 l 406 1010 l 477 1010 l 842 0 l 777 0 l 444 931 l 439 931 l 107 0 m 199 380 l 685 380 l 685 323 l 199 323 l 199 380 m 415 1118 l 267 1336 l 338 1336 l 471 1118 l 415 1118 z "},"Á":{"ha":884,"x_min":42,"x_max":842,"o":"m 107 0 l 42 0 l 406 1010 l 477 1010 l 842 0 l 777 0 l 444 931 l 439 931 l 107 0 m 199 380 l 685 380 l 685 323 l 199 323 l 199 380 m 413 1118 l 545 1336 l 617 1336 l 468 1118 l 413 1118 z "},"Â":{"ha":884,"x_min":42,"x_max":842,"o":"m 107 0 l 42 0 l 406 1010 l 477 1010 l 842 0 l 777 0 l 444 931 l 439 931 l 107 0 m 199 380 l 685 380 l 685 323 l 199 323 l 199 380 m 575 1093 l 442 1240 l 309 1093 l 247 1093 l 247 1098 l 422 1290 l 462 1290 l 637 1098 l 637 1093 l 575 1093 z "},"Å":{"ha":884,"x_min":42,"x_max":842,"o":"m 107 0 l 42 0 l 406 1010 l 477 1010 l 842 0 l 777 0 l 444 931 l 439 931 l 107 0 m 199 380 l 685 380 l 685 323 l 199 323 l 199 380 m 442 1066 q 355 1102 391 1066 q 319 1189 319 1138 q 336 1251 319 1223 q 380 1295 352 1278 q 442 1311 408 1311 q 504 1295 476 1311 q 548 1251 532 1278 q 565 1189 565 1223 q 548 1127 565 1155 q 504 1082 532 1099 q 442 1066 476 1066 m 442 1111 q 497 1133 475 1111 q 519 1189 519 1156 q 497 1244 519 1221 q 442 1267 474 1267 q 387 1244 409 1267 q 364 1189 364 1221 q 387 1133 364 1156 q 442 1111 409 1111 z "},"Æ":{"ha":1346,"x_min":42,"x_max":1249,"o":"m 42 0 l 548 1010 l 1237 1010 l 1237 953 l 736 953 l 736 534 l 1207 534 l 1207 477 l 736 477 l 736 57 l 1249 57 l 1249 0 l 675 0 l 675 953 l 584 953 l 110 0 l 42 0 m 245 323 l 245 380 l 707 380 l 707 323 l 245 323 z "},"B":{"ha":894,"x_min":146,"x_max":797,"o":"m 146 0 l 146 1010 l 474 1010 q 629 978 566 1010 q 725 886 692 945 q 758 750 758 828 q 738 641 758 689 q 683 563 718 594 q 600 520 648 532 l 600 514 q 697 478 653 510 q 770 391 742 446 q 797 262 797 335 q 764 126 797 184 q 664 33 730 67 q 501 0 598 0 l 146 0 m 208 57 l 501 57 q 676 114 615 57 q 737 262 737 172 q 708 376 737 326 q 625 455 678 426 q 503 485 572 485 l 208 485 l 208 57 m 208 541 l 495 541 q 605 569 560 541 q 674 645 650 597 q 698 750 698 692 q 640 898 698 843 q 474 953 581 953 l 208 953 l 208 541 z "},"C":{"ha":1006,"x_min":95,"x_max":915,"o":"m 915 694 l 852 694 q 815 794 842 746 q 745 881 788 842 q 647 942 703 919 q 522 965 590 965 q 339 912 423 965 q 205 756 255 859 q 155 505 155 654 q 205 253 155 356 q 339 98 255 150 q 522 45 423 45 q 647 68 590 45 q 745 129 703 90 q 815 216 788 168 q 852 316 842 264 l 915 316 q 874 196 905 254 q 793 90 843 137 q 675 14 743 42 q 522 -14 607 -14 q 300 51 396 -14 q 149 232 204 115 q 95 505 95 349 q 149 778 95 661 q 300 960 204 895 q 522 1024 396 1024 q 675 996 607 1024 q 793 921 743 968 q 874 815 843 874 q 915 694 905 757 z "},"Ç":{"ha":1006,"x_min":95,"x_max":915,"o":"m 915 694 l 852 694 q 815 794 842 746 q 745 881 788 842 q 647 942 703 919 q 522 965 590 965 q 339 912 423 965 q 205 756 255 859 q 155 505 155 654 q 205 253 155 356 q 339 98 255 150 q 522 45 423 45 q 647 68 590 45 q 745 129 703 90 q 815 216 788 168 q 852 316 842 264 l 915 316 q 874 196 905 254 q 793 90 843 137 q 675 14 743 42 q 522 -14 607 -14 q 300 51 396 -14 q 149 232 204 115 q 95 505 95 349 q 149 778 95 661 q 300 960 204 895 q 522 1024 396 1024 q 675 996 607 1024 q 793 921 743 968 q 874 815 843 874 q 915 694 905 757 m 495 1 l 548 1 l 541 -38 q 615 -74 587 -45 q 643 -153 643 -103 q 603 -239 643 -209 q 485 -271 563 -269 l 483 -224 q 561 -206 536 -223 q 587 -154 587 -190 q 560 -96 587 -115 q 479 -77 534 -77 l 495 1 z "},"D":{"ha":994,"x_min":146,"x_max":900,"o":"m 426 0 l 146 0 l 146 1010 l 448 1010 q 691 950 590 1010 q 846 778 792 890 q 900 509 900 665 q 843 235 899 348 q 682 60 788 121 q 426 0 577 0 m 208 57 l 424 57 q 652 111 559 57 q 792 266 744 165 q 839 509 839 367 q 793 747 839 648 q 660 900 747 846 q 445 953 572 953 l 208 953 l 208 57 z "},"E":{"ha":817,"x_min":146,"x_max":720,"o":"m 146 0 l 146 1010 l 708 1010 l 708 953 l 208 953 l 208 534 l 678 534 l 678 477 l 208 477 l 208 57 l 720 57 l 720 0 l 146 0 z "},"È":{"ha":817,"x_min":146,"x_max":720,"o":"m 146 0 l 146 1010 l 708 1010 l 708 953 l 208 953 l 208 534 l 678 534 l 678 477 l 208 477 l 208 57 l 720 57 l 720 0 l 146 0 m 402 1118 l 254 1336 l 326 1336 l 458 1118 l 402 1118 z "},"É":{"ha":817,"x_min":146,"x_max":720,"o":"m 146 0 l 146 1010 l 708 1010 l 708 953 l 208 953 l 208 534 l 678 534 l 678 477 l 208 477 l 208 57 l 720 57 l 720 0 l 146 0 m 400 1118 l 532 1336 l 604 1336 l 455 1118 l 400 1118 z "},"Ê":{"ha":817,"x_min":146,"x_max":720,"o":"m 146 0 l 146 1010 l 708 1010 l 708 953 l 208 953 l 208 534 l 678 534 l 678 477 l 208 477 l 208 57 l 720 57 l 720 0 l 146 0 m 561 1093 l 429 1240 l 296 1093 l 234 1093 l 234 1098 l 408 1290 l 449 1290 l 623 1098 l 623 1093 l 561 1093 z "},"Ë":{"ha":817,"x_min":146,"x_max":720,"o":"m 146 0 l 146 1010 l 708 1010 l 708 953 l 208 953 l 208 534 l 678 534 l 678 477 l 208 477 l 208 57 l 720 57 l 720 0 l 146 0 m 318 1144 q 285 1159 299 1144 q 271 1192 271 1173 q 285 1225 271 1212 q 318 1239 299 1239 q 352 1225 338 1239 q 365 1192 365 1212 q 352 1159 365 1173 q 318 1144 338 1144 m 539 1144 q 506 1159 520 1144 q 492 1192 492 1173 q 506 1225 492 1212 q 539 1239 520 1239 q 573 1225 559 1239 q 586 1192 586 1212 q 573 1159 586 1173 q 539 1144 559 1144 z "},"F":{"ha":813,"x_min":146,"x_max":710,"o":"m 146 0 l 146 1010 l 710 1010 l 710 953 l 208 953 l 208 534 l 663 534 l 663 477 l 208 477 l 208 0 l 146 0 z "},"G":{"ha":1028,"x_min":95,"x_max":924,"o":"m 854 694 q 815 794 842 746 q 746 881 788 842 q 647 942 704 919 q 521 965 591 965 q 331 909 414 965 q 202 749 249 853 q 155 505 155 646 q 202 262 155 365 q 332 102 248 158 q 526 45 415 45 q 702 91 625 45 q 822 222 779 137 q 864 427 865 308 l 885 416 l 542 416 l 542 473 l 924 473 l 924 416 q 873 186 924 283 q 732 38 822 90 q 526 -14 642 -14 q 299 51 396 -14 q 148 232 202 115 q 95 505 95 349 q 125 718 95 622 q 213 882 156 814 q 348 987 269 950 q 521 1024 426 1024 q 675 996 607 1024 q 794 920 744 967 q 875 814 844 872 q 917 694 906 755 l 854 694 z "},"H":{"ha":1024,"x_min":146,"x_max":878,"o":"m 146 0 l 146 1010 l 208 1010 l 208 534 l 816 534 l 816 1010 l 878 1010 l 878 0 l 816 0 l 816 477 l 208 477 l 208 0 l 146 0 z "},"I":{"ha":354,"x_min":146,"x_max":208,"o":"m 208 1010 l 208 0 l 146 0 l 146 1010 l 208 1010 z "},"Ï":{"ha":354,"x_min":19,"x_max":335,"o":"m 208 1010 l 208 0 l 146 0 l 146 1010 l 208 1010 m 67 1144 q 33 1159 47 1144 q 19 1192 19 1173 q 33 1225 19 1211 q 67 1239 47 1239 q 100 1225 86 1239 q 114 1192 114 1211 q 100 1159 114 1173 q 67 1144 86 1144 m 288 1144 q 254 1159 268 1144 q 240 1192 240 1173 q 254 1225 240 1211 q 288 1239 268 1239 q 321 1225 307 1239 q 335 1192 335 1211 q 321 1159 335 1173 q 288 1144 307 1144 z "},"Ì":{"ha":354,"x_min":2,"x_max":208,"o":"m 208 1010 l 208 0 l 146 0 l 146 1010 l 208 1010 m 150 1118 l 2 1336 l 73 1336 l 206 1118 l 150 1118 z "},"Í":{"ha":354,"x_min":146,"x_max":352,"o":"m 208 1010 l 208 0 l 146 0 l 146 1010 l 208 1010 m 148 1118 l 280 1336 l 352 1336 l 203 1118 l 148 1118 z "},"Î":{"ha":354,"x_min":-18,"x_max":371,"o":"m 208 1010 l 208 0 l 146 0 l 146 1010 l 208 1010 m 310 1093 l 177 1240 l 44 1093 l -18 1093 l -18 1098 l 157 1290 l 197 1290 l 372 1098 l 372 1093 l 310 1093 z "},"J":{"ha":732,"x_min":69,"x_max":586,"o":"m 525 1010 l 586 1010 l 586 275 q 552 110 586 174 q 458 17 517 47 q 327 -14 400 -14 q 195 14 254 -14 q 103 91 137 42 q 69 205 69 141 l 130 205 q 156 122 130 158 q 226 64 182 85 q 327 43 271 43 q 427 67 382 43 q 498 141 472 90 q 525 275 524 191 l 525 1010 z "},"K":{"ha":872,"x_min":146,"x_max":829,"o":"m 146 0 l 146 1010 l 208 1010 l 208 424 l 215 424 l 747 1010 l 829 1010 l 391 532 l 825 0 l 748 0 l 351 488 l 208 329 l 208 0 l 146 0 z "},"L":{"ha":781,"x_min":146,"x_max":701,"o":"m 146 0 l 146 1010 l 208 1010 l 208 57 l 701 57 l 701 0 l 146 0 z "},"M":{"ha":1211,"x_min":146,"x_max":1065,"o":"m 146 1010 l 213 1010 l 602 89 l 609 89 l 998 1010 l 1065 1010 l 1065 0 l 1006 0 l 1006 864 l 1000 864 l 635 0 l 577 0 l 211 864 l 205 864 l 205 0 l 146 0 l 146 1010 z "},"N":{"ha":1064,"x_min":146,"x_max":918,"o":"m 918 1010 l 918 0 l 858 0 l 214 898 l 208 898 l 208 0 l 146 0 l 146 1010 l 207 1010 l 851 111 l 857 111 l 857 1010 l 918 1010 z "},"Ñ":{"ha":1064,"x_min":146,"x_max":918,"o":"m 918 1010 l 918 0 l 858 0 l 214 898 l 208 898 l 208 0 l 146 0 l 146 1010 l 207 1010 l 851 111 l 857 111 l 857 1010 l 918 1010 m 351 1128 l 300 1132 q 343 1224 304 1189 q 436 1259 382 1259 q 492 1248 469 1259 q 536 1222 516 1236 q 577 1196 556 1207 q 625 1184 598 1184 q 683 1206 657 1184 q 713 1261 708 1227 l 764 1253 q 717 1163 757 1197 q 627 1130 678 1130 q 572 1141 595 1130 q 531 1167 550 1153 q 490 1193 511 1182 q 438 1205 469 1205 q 379 1183 403 1205 q 351 1128 354 1161 z "},"O":{"ha":1044,"x_min":95,"x_max":949,"o":"m 949 505 q 895 232 949 349 q 745 51 841 115 q 522 -14 648 -14 q 300 51 396 -14 q 149 233 203 116 q 95 505 95 349 q 149 778 95 661 q 300 959 204 894 q 522 1024 396 1024 q 745 959 648 1024 q 895 778 841 895 q 949 505 949 661 m 889 505 q 842 749 889 646 q 712 908 795 852 q 522 965 629 965 q 332 909 415 965 q 202 749 250 853 q 155 505 155 646 q 202 262 155 365 q 331 102 249 159 q 522 45 414 45 q 712 102 629 45 q 842 261 795 158 q 889 505 889 364 z "},"Ö":{"ha":1044,"x_min":95,"x_max":949,"o":"m 949 505 q 895 232 949 349 q 745 51 841 115 q 522 -14 648 -14 q 300 51 396 -14 q 149 233 203 116 q 95 505 95 349 q 149 778 95 661 q 300 959 204 894 q 522 1024 396 1024 q 745 959 648 1024 q 895 778 841 895 q 949 505 949 661 m 889 505 q 842 749 889 646 q 712 908 795 852 q 522 965 629 965 q 332 909 415 965 q 202 749 250 853 q 155 505 155 646 q 202 262 155 365 q 331 102 249 159 q 522 45 414 45 q 712 102 629 45 q 842 261 795 158 q 889 505 889 364 m 412 1144 q 379 1159 393 1144 q 364 1192 364 1173 q 379 1225 364 1211 q 412 1239 393 1239 q 445 1225 432 1239 q 459 1192 459 1211 q 445 1159 459 1173 q 412 1144 432 1144 m 633 1144 q 600 1159 614 1144 q 585 1192 585 1173 q 600 1225 585 1211 q 633 1239 614 1239 q 666 1225 653 1239 q 680 1192 680 1211 q 666 1159 680 1173 q 633 1144 653 1144 z "},"Õ":{"ha":1044,"x_min":95,"x_max":949,"o":"m 949 505 q 895 232 949 349 q 745 51 841 115 q 522 -14 648 -14 q 300 51 396 -14 q 149 233 203 116 q 95 505 95 349 q 149 778 95 661 q 300 959 204 894 q 522 1024 396 1024 q 745 959 648 1024 q 895 778 841 895 q 949 505 949 661 m 889 505 q 842 749 889 646 q 712 908 795 852 q 522 965 629 965 q 332 909 415 965 q 202 749 250 853 q 155 505 155 646 q 202 262 155 365 q 331 102 249 159 q 522 45 414 45 q 712 102 629 45 q 842 261 795 158 q 889 505 889 364 m 342 1141 l 291 1145 q 334 1236 295 1201 q 428 1272 373 1272 q 483 1260 460 1272 q 527 1234 507 1249 q 568 1208 547 1220 q 617 1197 589 1197 q 674 1218 648 1197 q 704 1273 699 1240 l 755 1265 q 709 1176 748 1210 q 618 1142 669 1142 q 563 1154 586 1142 q 522 1180 541 1165 q 481 1206 503 1195 q 430 1217 460 1217 q 370 1196 395 1217 q 342 1141 345 1174 z "},"Ø":{"ha":1044,"x_min":95,"x_max":949,"o":"m 199 -30 l 156 0 l 844 1039 l 886 1010 l 199 -30 m 949 505 q 895 232 949 349 q 745 51 841 115 q 522 -14 648 -14 q 300 51 396 -14 q 149 233 203 116 q 95 505 95 349 q 149 778 95 661 q 300 959 204 894 q 522 1024 396 1024 q 745 959 648 1024 q 895 778 841 895 q 949 505 949 661 m 889 505 q 842 749 889 646 q 712 908 795 852 q 522 965 629 965 q 332 909 415 965 q 202 749 250 853 q 155 505 155 646 q 202 262 155 365 q 331 102 249 159 q 522 45 414 45 q 712 102 629 45 q 842 261 795 158 q 889 505 889 364 z "},"Ò":{"ha":1044,"x_min":95,"x_max":949,"o":"m 949 505 q 895 232 949 349 q 745 51 841 115 q 522 -14 648 -14 q 300 51 396 -14 q 149 233 203 116 q 95 505 95 349 q 149 778 95 661 q 300 959 204 894 q 522 1024 396 1024 q 745 959 648 1024 q 895 778 841 895 q 949 505 949 661 m 889 505 q 842 749 889 646 q 712 908 795 852 q 522 965 629 965 q 332 909 415 965 q 202 749 250 853 q 155 505 155 646 q 202 262 155 365 q 331 102 249 159 q 522 45 414 45 q 712 102 629 45 q 842 261 795 158 q 889 505 889 364 m 496 1118 l 347 1336 l 419 1336 l 551 1118 l 496 1118 z "},"Ó":{"ha":1044,"x_min":95,"x_max":949,"o":"m 949 505 q 895 232 949 349 q 745 51 841 115 q 522 -14 648 -14 q 300 51 396 -14 q 149 233 203 116 q 95 505 95 349 q 149 778 95 661 q 300 959 204 894 q 522 1024 396 1024 q 745 959 648 1024 q 895 778 841 895 q 949 505 949 661 m 889 505 q 842 749 889 646 q 712 908 795 852 q 522 965 629 965 q 332 909 415 965 q 202 749 250 853 q 155 505 155 646 q 202 262 155 365 q 331 102 249 159 q 522 45 414 45 q 712 102 629 45 q 842 261 795 158 q 889 505 889 364 m 493 1118 l 625 1336 l 697 1336 l 548 1118 l 493 1118 z "},"Ô":{"ha":1044,"x_min":95,"x_max":949,"o":"m 949 505 q 895 232 949 349 q 745 51 841 115 q 522 -14 648 -14 q 300 51 396 -14 q 149 233 203 116 q 95 505 95 349 q 149 778 95 661 q 300 959 204 894 q 522 1024 396 1024 q 745 959 648 1024 q 895 778 841 895 q 949 505 949 661 m 889 505 q 842 749 889 646 q 712 908 795 852 q 522 965 629 965 q 332 909 415 965 q 202 749 250 853 q 155 505 155 646 q 202 262 155 365 q 331 102 249 159 q 522 45 414 45 q 712 102 629 45 q 842 261 795 158 q 889 505 889 364 m 655 1093 l 522 1240 l 390 1093 l 327 1093 l 327 1098 l 502 1290 l 543 1290 l 717 1098 l 717 1093 l 655 1093 z "},"Œ":{"ha":1295,"x_min":95,"x_max":1198,"o":"m 522 0 q 298 64 395 0 q 148 241 202 127 q 95 505 95 355 q 148 770 95 656 q 299 947 202 883 q 522 1010 395 1010 l 1186 1010 l 1186 953 l 685 953 l 685 534 l 1156 534 l 1156 477 l 685 477 l 685 57 l 1198 57 l 1198 0 l 522 0 m 623 57 l 623 953 l 522 953 q 331 897 413 953 q 202 741 248 841 q 155 505 155 640 q 201 271 155 372 q 330 114 247 170 q 522 57 412 57 l 623 57 z "},"P":{"ha":856,"x_min":146,"x_max":765,"o":"m 146 0 l 146 1010 l 457 1010 q 622 971 553 1010 q 728 863 691 931 q 765 706 765 794 q 728 551 765 619 q 622 443 691 482 q 458 403 553 403 l 189 403 l 189 460 l 456 460 q 589 492 534 460 q 674 579 645 524 q 704 706 704 635 q 674 834 704 778 q 589 921 645 890 q 456 953 534 953 l 208 953 l 208 0 l 146 0 z "},"Q":{"ha":1044,"x_min":95,"x_max":949,"o":"m 535 316 l 606 316 l 753 122 l 767 103 l 916 -95 l 845 -95 l 723 68 l 710 85 l 535 316 m 949 505 q 895 232 949 349 q 745 51 841 115 q 522 -14 648 -14 q 300 51 396 -14 q 149 233 203 116 q 95 505 95 349 q 149 778 95 661 q 300 959 204 894 q 522 1024 396 1024 q 745 959 648 1024 q 895 778 841 895 q 949 505 949 661 m 889 505 q 842 749 889 646 q 712 908 795 852 q 522 965 629 965 q 332 909 415 965 q 202 749 250 853 q 155 505 155 646 q 202 262 155 365 q 331 102 249 159 q 522 45 414 45 q 712 102 629 45 q 842 261 795 158 q 889 505 889 364 z "},"R":{"ha":866,"x_min":146,"x_max":809,"o":"m 146 0 l 146 1010 l 457 1010 q 622 973 553 1010 q 728 869 691 935 q 765 715 765 802 q 728 562 765 628 q 622 459 691 496 q 458 422 553 422 l 179 422 l 179 480 l 456 480 q 589 509 534 480 q 674 591 645 538 q 704 715 704 643 q 674 840 704 787 q 589 923 645 894 q 456 953 534 953 l 208 953 l 208 0 l 146 0 m 561 458 l 809 0 l 738 0 l 491 458 l 561 458 z "},"S":{"ha":862,"x_min":97,"x_max":765,"o":"m 690 758 q 614 910 683 852 q 436 968 545 968 q 305 941 363 968 q 216 867 248 914 q 183 760 183 820 q 198 689 183 721 q 241 634 213 658 q 306 591 268 609 q 390 559 344 573 l 501 526 q 605 486 557 509 q 689 432 654 464 q 745 359 725 401 q 765 262 765 317 q 724 119 765 182 q 607 20 683 56 q 429 -16 531 -16 q 259 17 331 -16 q 145 109 186 50 q 97 245 103 168 l 160 245 q 200 136 165 182 q 294 66 236 91 q 429 41 353 41 q 572 69 510 41 q 669 147 634 97 q 704 263 704 197 q 679 354 704 316 q 605 420 654 392 q 483 469 556 447 l 365 505 q 185 603 247 541 q 122 758 122 665 q 164 896 122 836 q 276 991 205 956 q 437 1025 348 1025 q 597 991 528 1025 q 706 895 666 956 q 751 758 747 835 l 690 758 z "},"T":{"ha":866,"x_min":79,"x_max":787,"o":"m 79 953 l 79 1010 l 787 1010 l 787 953 l 464 953 l 464 0 l 402 0 l 402 953 l 79 953 z "},"U":{"ha":1038,"x_min":145,"x_max":892,"o":"m 830 1010 l 892 1010 l 892 341 q 844 158 892 238 q 712 30 796 77 q 519 -16 628 -16 q 326 30 410 -16 q 194 158 242 77 q 146 341 145 239 l 146 1010 l 208 1010 l 208 345 q 247 189 208 257 q 357 82 287 121 q 519 43 427 43 q 681 82 611 43 q 790 189 751 121 q 830 345 830 257 l 830 1010 z "},"Ù":{"ha":1038,"x_min":145,"x_max":892,"o":"m 830 1010 l 892 1010 l 892 341 q 844 158 892 238 q 712 30 796 77 q 519 -16 628 -16 q 326 30 410 -16 q 194 158 242 77 q 146 341 145 239 l 146 1010 l 208 1010 l 208 345 q 247 189 208 257 q 357 82 287 121 q 519 43 427 43 q 681 82 611 43 q 790 189 751 121 q 830 345 830 257 l 830 1010 m 492 1118 l 344 1336 l 415 1336 l 547 1118 l 492 1118 z "},"Ú":{"ha":1038,"x_min":145,"x_max":892,"o":"m 830 1010 l 892 1010 l 892 341 q 844 158 892 238 q 712 30 796 77 q 519 -16 628 -16 q 326 30 410 -16 q 194 158 242 77 q 146 341 145 239 l 146 1010 l 208 1010 l 208 345 q 247 189 208 257 q 357 82 287 121 q 519 43 427 43 q 681 82 611 43 q 790 189 751 121 q 830 345 830 257 l 830 1010 m 490 1118 l 622 1336 l 693 1336 l 545 1118 l 490 1118 z "},"Û":{"ha":1038,"x_min":145,"x_max":892,"o":"m 830 1010 l 892 1010 l 892 341 q 844 158 892 238 q 712 30 796 77 q 519 -16 628 -16 q 326 30 410 -16 q 194 158 242 77 q 146 341 145 239 l 146 1010 l 208 1010 l 208 345 q 247 189 208 257 q 357 82 287 121 q 519 43 427 43 q 681 82 611 43 q 790 189 751 121 q 830 345 830 257 l 830 1010 m 652 1093 l 519 1240 l 386 1093 l 324 1093 l 324 1098 l 499 1290 l 539 1290 l 714 1098 l 714 1093 l 652 1093 z "},"Ü":{"ha":1038,"x_min":145,"x_max":892,"o":"m 830 1010 l 892 1010 l 892 341 q 844 158 892 238 q 712 30 796 77 q 519 -16 628 -16 q 326 30 410 -16 q 194 158 242 77 q 146 341 145 239 l 146 1010 l 208 1010 l 208 345 q 247 189 208 257 q 357 82 287 121 q 519 43 427 43 q 681 82 611 43 q 790 189 751 121 q 830 345 830 257 l 830 1010 m 408 1144 q 375 1159 390 1144 q 361 1192 361 1173 q 375 1225 361 1212 q 408 1239 390 1239 q 442 1225 428 1239 q 456 1192 456 1212 q 442 1159 456 1173 q 408 1144 428 1144 m 629 1144 q 596 1159 611 1144 q 582 1192 582 1173 q 596 1225 582 1212 q 629 1239 611 1239 q 663 1225 649 1239 q 677 1192 677 1212 q 663 1159 677 1173 q 629 1144 649 1144 z "},"V":{"ha":884,"x_min":42,"x_max":842,"o":"m 107 1010 l 438 79 l 445 79 l 777 1010 l 842 1010 l 477 0 l 406 0 l 42 1010 l 107 1010 z "},"W":{"ha":1265,"x_min":36,"x_max":1229,"o":"m 314 0 l 36 1010 l 100 1010 l 347 95 l 353 95 l 595 1010 l 670 1010 l 913 95 l 919 95 l 1165 1010 l 1229 1010 l 951 0 l 880 0 l 635 909 l 630 909 l 385 0 l 314 0 z "},"X":{"ha":839,"x_min":44,"x_max":795,"o":"m 118 1010 l 417 553 l 422 553 l 721 1010 l 795 1010 l 463 505 l 795 0 l 721 0 l 422 454 l 417 454 l 118 0 l 44 0 l 379 505 l 44 1010 l 118 1010 z "},"Y":{"ha":876,"x_min":43,"x_max":833,"o":"m 43 1010 l 116 1010 l 435 523 l 441 523 l 760 1010 l 833 1010 l 469 458 l 469 0 l 407 0 l 407 458 l 43 1010 z "},"Ý":{"ha":876,"x_min":43,"x_max":833,"o":"m 43 1010 l 116 1010 l 435 523 l 441 523 l 760 1010 l 833 1010 l 469 458 l 469 0 l 407 0 l 407 458 l 43 1010 m 409 1118 l 541 1336 l 613 1336 l 464 1118 l 409 1118 z "},"Z":{"ha":850,"x_min":99,"x_max":755,"o":"m 99 0 l 99 51 l 677 953 l 100 953 l 100 1010 l 750 1010 l 750 959 l 173 57 l 755 57 l 755 0 l 99 0 z "},"a":{"ha":762,"x_min":85,"x_max":635,"o":"m 326 -16 q 205 10 260 -16 q 118 86 151 36 q 85 209 85 137 q 102 292 85 256 q 154 354 119 328 q 244 397 189 380 q 374 424 298 414 q 477 437 432 431 q 549 458 523 444 q 575 502 575 472 l 575 533 q 522 665 575 616 q 378 714 470 714 q 241 678 297 714 q 164 586 186 642 l 107 607 q 170 697 129 661 q 265 751 211 733 q 377 769 318 769 q 474 755 428 769 q 556 711 520 740 q 614 637 592 682 q 635 529 635 592 l 635 0 l 575 0 l 575 137 l 570 137 q 516 59 550 94 q 434 4 482 25 q 326 -16 386 -16 m 331 39 q 457 74 402 39 q 544 170 512 109 q 575 307 575 230 l 575 419 q 542 401 563 409 q 493 388 520 394 q 437 378 467 382 q 380 370 408 374 q 245 340 297 361 q 169 287 193 320 q 145 207 145 254 q 199 84 145 129 q 331 39 252 39 z "},"á":{"ha":762,"x_min":85,"x_max":635,"o":"m 326 -16 q 205 10 260 -16 q 118 86 151 36 q 85 209 85 137 q 102 292 85 256 q 154 354 119 328 q 244 397 189 380 q 374 424 298 414 q 477 437 432 431 q 549 458 523 444 q 575 502 575 472 l 575 533 q 522 665 575 616 q 378 714 470 714 q 241 678 297 714 q 164 586 186 642 l 107 607 q 170 697 129 661 q 265 751 211 733 q 377 769 318 769 q 474 755 428 769 q 556 711 520 740 q 614 637 592 682 q 635 529 635 592 l 635 0 l 575 0 l 575 137 l 570 137 q 516 59 550 94 q 434 4 482 25 q 326 -16 386 -16 m 331 39 q 457 74 402 39 q 544 170 512 109 q 575 307 575 230 l 575 419 q 542 401 563 409 q 493 388 520 394 q 437 378 467 382 q 380 370 408 374 q 245 340 297 361 q 169 287 193 320 q 145 207 145 254 q 199 84 145 129 q 331 39 252 39 m 356 866 l 488 1084 l 559 1084 l 411 866 l 356 866 z "},"â":{"ha":762,"x_min":85,"x_max":635,"o":"m 326 -16 q 205 10 260 -16 q 118 86 151 36 q 85 209 85 137 q 102 292 85 256 q 154 354 119 328 q 244 397 189 380 q 374 424 298 414 q 477 437 432 431 q 549 458 523 444 q 575 502 575 472 l 575 533 q 522 665 575 616 q 378 714 470 714 q 241 678 297 714 q 164 586 186 642 l 107 607 q 170 697 129 661 q 265 751 211 733 q 377 769 318 769 q 474 755 428 769 q 556 711 520 740 q 614 637 592 682 q 635 529 635 592 l 635 0 l 575 0 l 575 137 l 570 137 q 516 59 550 94 q 434 4 482 25 q 326 -16 386 -16 m 331 39 q 457 74 402 39 q 544 170 512 109 q 575 307 575 230 l 575 419 q 542 401 563 409 q 493 388 520 394 q 437 378 467 382 q 380 370 408 374 q 245 340 297 361 q 169 287 193 320 q 145 207 145 254 q 199 84 145 129 q 331 39 252 39 m 517 840 l 385 988 l 252 840 l 190 840 l 190 846 l 364 1038 l 405 1038 l 580 846 l 580 840 l 517 840 z "},"ä":{"ha":762,"x_min":85,"x_max":635,"o":"m 326 -16 q 205 10 260 -16 q 118 86 151 36 q 85 209 85 137 q 102 292 85 256 q 154 354 119 328 q 244 397 189 380 q 374 424 298 414 q 477 437 432 431 q 549 458 523 444 q 575 502 575 472 l 575 533 q 522 665 575 616 q 378 714 470 714 q 241 678 297 714 q 164 586 186 642 l 107 607 q 170 697 129 661 q 265 751 211 733 q 377 769 318 769 q 474 755 428 769 q 556 711 520 740 q 614 637 592 682 q 635 529 635 592 l 635 0 l 575 0 l 575 137 l 570 137 q 516 59 550 94 q 434 4 482 25 q 326 -16 386 -16 m 331 39 q 457 74 402 39 q 544 170 512 109 q 575 307 575 230 l 575 419 q 542 401 563 409 q 493 388 520 394 q 437 378 467 382 q 380 370 408 374 q 245 340 297 361 q 169 287 193 320 q 145 207 145 254 q 199 84 145 129 q 331 39 252 39 m 274 892 q 241 906 255 892 q 227 939 227 920 q 241 973 227 959 q 274 986 255 986 q 308 973 294 986 q 322 939 322 959 q 308 906 322 920 q 274 892 294 892 m 495 892 q 462 906 476 892 q 448 939 448 920 q 462 973 448 959 q 495 986 476 986 q 529 973 515 986 q 543 939 543 959 q 529 906 543 920 q 495 892 515 892 z "},"à":{"ha":762,"x_min":85,"x_max":635,"o":"m 326 -16 q 205 10 260 -16 q 118 86 151 36 q 85 209 85 137 q 102 292 85 256 q 154 354 119 328 q 244 397 189 380 q 374 424 298 414 q 477 437 432 431 q 549 458 523 444 q 575 502 575 472 l 575 533 q 522 665 575 616 q 378 714 470 714 q 241 678 297 714 q 164 586 186 642 l 107 607 q 170 697 129 661 q 265 751 211 733 q 377 769 318 769 q 474 755 428 769 q 556 711 520 740 q 614 637 592 682 q 635 529 635 592 l 635 0 l 575 0 l 575 137 l 570 137 q 516 59 550 94 q 434 4 482 25 q 326 -16 386 -16 m 331 39 q 457 74 402 39 q 544 170 512 109 q 575 307 575 230 l 575 419 q 542 401 563 409 q 493 388 520 394 q 437 378 467 382 q 380 370 408 374 q 245 340 297 361 q 169 287 193 320 q 145 207 145 254 q 199 84 145 129 q 331 39 252 39 m 358 866 l 210 1084 l 281 1084 l 413 866 l 358 866 z "},"å":{"ha":762,"x_min":85,"x_max":635,"o":"m 326 -16 q 205 10 260 -16 q 118 86 151 36 q 85 209 85 137 q 102 292 85 256 q 154 354 119 328 q 244 397 189 380 q 374 424 298 414 q 477 437 432 431 q 549 458 523 444 q 575 502 575 472 l 575 533 q 522 665 575 616 q 378 714 470 714 q 241 678 297 714 q 164 586 186 642 l 107 607 q 170 697 129 661 q 265 751 211 733 q 377 769 318 769 q 474 755 428 769 q 556 711 520 740 q 614 637 592 682 q 635 529 635 592 l 635 0 l 575 0 l 575 137 l 570 137 q 516 59 550 94 q 434 4 482 25 q 326 -16 386 -16 m 331 39 q 457 74 402 39 q 544 170 512 109 q 575 307 575 230 l 575 419 q 542 401 563 409 q 493 388 520 394 q 437 378 467 382 q 380 370 408 374 q 245 340 297 361 q 169 287 193 320 q 145 207 145 254 q 199 84 145 129 q 331 39 252 39 m 385 849 q 317 866 347 849 q 268 914 286 884 q 250 980 250 944 q 268 1047 250 1017 q 317 1095 286 1077 q 385 1113 347 1113 q 453 1095 423 1113 q 501 1047 483 1077 q 519 980 519 1017 q 501 914 519 944 q 453 866 483 884 q 385 849 423 849 m 385 895 q 446 920 421 895 q 470 980 470 945 q 445 1040 470 1015 q 385 1066 421 1066 q 324 1040 348 1066 q 299 980 299 1015 q 324 920 299 945 q 385 895 349 895 z "},"ã":{"ha":762,"x_min":85,"x_max":635,"o":"m 326 -16 q 205 10 260 -16 q 118 86 151 36 q 85 209 85 137 q 102 292 85 256 q 154 354 119 328 q 244 397 189 380 q 374 424 298 414 q 477 437 432 431 q 549 458 523 444 q 575 502 575 472 l 575 533 q 522 665 575 616 q 378 714 470 714 q 241 678 297 714 q 164 586 186 642 l 107 607 q 170 697 129 661 q 265 751 211 733 q 377 769 318 769 q 474 755 428 769 q 556 711 520 740 q 614 637 592 682 q 635 529 635 592 l 635 0 l 575 0 l 575 137 l 570 137 q 516 59 550 94 q 434 4 482 25 q 326 -16 386 -16 m 331 39 q 457 74 402 39 q 544 170 512 109 q 575 307 575 230 l 575 419 q 542 401 563 409 q 493 388 520 394 q 437 378 467 382 q 380 370 408 374 q 245 340 297 361 q 169 287 193 320 q 145 207 145 254 q 199 84 145 129 q 331 39 252 39 m 204 876 l 153 880 q 196 971 157 936 q 290 1007 235 1007 q 345 995 322 1007 q 389 969 369 984 q 430 943 409 955 q 478 932 451 932 q 536 953 510 932 q 566 1008 561 975 l 617 1000 q 570 911 610 945 q 480 877 531 877 q 425 889 448 877 q 384 915 403 900 q 343 941 364 929 q 291 952 322 952 q 232 930 256 952 q 204 876 207 908 z "},"æ":{"ha":1282,"x_min":85,"x_max":1199,"o":"m 898 -16 q 699 50 780 -16 q 589 220 618 115 l 603 564 q 713 713 640 657 q 884 769 787 769 q 1004 743 947 769 q 1105 670 1061 718 q 1174 555 1149 622 q 1199 403 1199 487 l 1199 365 l 603 365 l 603 420 l 1138 420 q 1105 568 1138 502 q 1014 674 1071 635 q 884 713 956 713 q 750 671 809 713 q 656 557 691 628 q 621 397 622 485 l 621 372 q 654 202 621 277 q 749 84 687 127 q 898 40 811 40 q 1004 61 960 40 q 1077 112 1049 82 q 1119 170 1105 142 l 1174 148 q 1121 72 1157 110 q 1029 9 1085 35 q 898 -16 973 -16 m 331 39 q 457 74 402 39 q 544 170 512 109 q 575 307 575 230 l 575 419 q 542 401 563 409 q 493 388 520 394 q 437 378 467 382 q 380 370 408 374 q 245 340 297 361 q 169 287 193 320 q 145 207 145 254 q 199 84 145 129 q 331 39 252 39 m 326 -16 q 205 10 260 -16 q 118 86 151 36 q 85 209 85 137 q 102 292 85 256 q 154 354 119 328 q 244 397 189 380 q 374 424 298 414 q 477 437 432 431 q 549 459 523 444 q 575 502 575 473 l 575 533 q 522 665 575 616 q 378 714 470 714 q 242 678 297 714 q 164 586 186 642 l 107 607 q 170 697 129 661 q 265 751 211 733 q 377 769 318 769 q 469 756 426 769 q 546 716 512 742 q 602 652 581 690 q 630 564 624 614 l 615 204 l 608 204 q 544 80 587 129 q 443 8 500 32 q 326 -16 386 -16 z "},"b":{"ha":841,"x_min":146,"x_max":758,"o":"m 146 0 l 146 1010 l 206 1010 l 206 588 l 212 588 q 262 678 229 637 q 343 744 294 719 q 456 769 391 769 q 615 718 547 769 q 721 579 683 668 q 758 377 758 491 q 721 173 758 262 q 616 35 683 85 q 456 -16 548 -16 q 343 9 392 -16 q 262 75 295 34 q 212 165 230 116 l 205 165 l 205 0 l 146 0 m 205 377 q 235 204 205 281 q 319 84 264 128 q 451 40 374 40 q 584 85 529 40 q 669 206 640 129 q 698 377 698 282 q 669 548 698 472 q 584 669 640 624 q 451 713 529 713 q 319 669 374 713 q 235 550 264 625 q 205 377 205 474 z "},"c":{"ha":770,"x_min":83,"x_max":690,"o":"m 409 -16 q 239 35 312 -16 q 124 175 165 86 q 83 376 83 264 q 124 578 83 489 q 239 718 166 666 q 408 769 313 769 q 540 739 480 769 q 638 657 599 710 q 689 535 678 604 l 627 535 q 554 662 613 612 q 409 713 495 713 q 272 670 332 713 q 177 551 212 626 q 143 377 143 475 q 176 205 143 281 q 270 84 210 129 q 409 40 330 40 q 511 62 465 40 q 588 125 557 84 q 629 221 619 166 l 690 221 q 641 98 679 151 q 543 14 602 44 q 409 -16 483 -16 z "},"ç":{"ha":770,"x_min":83,"x_max":690,"o":"m 409 -16 q 239 35 312 -16 q 124 175 165 86 q 83 376 83 264 q 124 578 83 489 q 239 718 166 666 q 408 769 313 769 q 540 739 480 769 q 638 657 599 710 q 689 535 678 604 l 627 535 q 554 662 613 612 q 409 713 495 713 q 272 670 332 713 q 177 551 212 626 q 143 377 143 475 q 176 205 143 281 q 270 84 210 129 q 409 40 330 40 q 511 62 465 40 q 588 125 557 84 q 629 221 619 166 l 690 221 q 641 98 679 151 q 543 14 602 44 q 409 -16 483 -16 m 375 4 l 428 4 l 421 -36 q 495 -72 467 -43 q 523 -150 523 -101 q 483 -237 523 -207 q 365 -268 443 -267 l 363 -221 q 441 -204 416 -220 q 468 -152 467 -187 q 440 -94 467 -112 q 359 -74 414 -75 l 375 4 z "},"d":{"ha":841,"x_min":83,"x_max":695,"o":"m 385 -16 q 225 35 293 -16 q 120 173 157 85 q 83 377 83 262 q 121 579 83 491 q 226 718 158 668 q 385 769 294 769 q 498 744 450 769 q 579 678 546 719 q 629 588 612 637 l 635 588 l 635 1010 l 695 1010 l 695 0 l 637 0 l 637 165 l 629 165 q 579 75 611 116 q 498 9 546 34 q 385 -16 449 -16 m 390 40 q 522 84 467 40 q 606 204 577 128 q 636 377 636 281 q 606 550 636 474 q 522 669 577 625 q 390 713 467 713 q 257 669 312 713 q 172 548 201 624 q 143 377 143 472 q 172 206 143 282 q 257 85 201 129 q 390 40 312 40 z "},"e":{"ha":803,"x_min":83,"x_max":721,"o":"m 420 -16 q 242 35 318 -16 q 124 174 166 86 q 83 375 83 262 q 125 578 83 489 q 239 718 166 666 q 406 769 312 769 q 527 744 470 769 q 627 670 583 718 q 696 555 671 622 q 721 403 721 487 l 721 365 l 121 365 l 121 420 l 660 420 q 627 569 660 503 q 536 674 593 635 q 406 713 478 713 q 272 671 330 713 q 178 557 213 628 q 143 397 144 485 l 143 372 q 176 202 143 278 q 271 84 209 127 q 420 40 333 40 q 527 61 482 40 q 599 112 571 82 q 641 170 627 142 l 696 148 q 642 72 679 110 q 551 9 606 35 q 420 -16 495 -16 z "},"ë":{"ha":803,"x_min":83,"x_max":721,"o":"m 420 -16 q 242 35 318 -16 q 124 174 166 86 q 83 375 83 262 q 125 578 83 489 q 239 718 166 666 q 406 769 312 769 q 527 744 470 769 q 627 670 583 718 q 696 555 671 622 q 721 403 721 487 l 721 365 l 121 365 l 121 420 l 660 420 q 627 569 660 503 q 536 674 593 635 q 406 713 478 713 q 272 671 330 713 q 178 557 213 628 q 143 397 144 485 l 143 372 q 176 202 143 278 q 271 84 209 127 q 420 40 333 40 q 527 61 482 40 q 599 112 571 82 q 641 170 627 142 l 696 148 q 642 72 679 110 q 551 9 606 35 q 420 -16 495 -16 m 292 892 q 259 906 273 892 q 245 939 245 920 q 259 973 245 959 q 292 986 273 986 q 326 973 312 986 q 339 939 339 959 q 326 906 339 920 q 292 892 312 892 m 513 892 q 480 906 494 892 q 466 939 466 920 q 480 973 466 959 q 513 986 494 986 q 546 973 533 986 q 560 939 560 959 q 546 906 560 920 q 513 892 533 892 z "},"è":{"ha":803,"x_min":83,"x_max":721,"o":"m 420 -16 q 242 35 318 -16 q 124 174 166 86 q 83 375 83 262 q 125 578 83 489 q 239 718 166 666 q 406 769 312 769 q 527 744 470 769 q 627 670 583 718 q 696 555 671 622 q 721 403 721 487 l 721 365 l 121 365 l 121 420 l 660 420 q 627 569 660 503 q 536 674 593 635 q 406 713 478 713 q 272 671 330 713 q 178 557 213 628 q 143 397 144 485 l 143 372 q 176 202 143 278 q 271 84 209 127 q 420 40 333 40 q 527 61 482 40 q 599 112 571 82 q 641 170 627 142 l 696 148 q 642 72 679 110 q 551 9 606 35 q 420 -16 495 -16 m 376 866 l 227 1084 l 299 1084 l 431 866 l 376 866 z "},"é":{"ha":803,"x_min":83,"x_max":721,"o":"m 420 -16 q 242 35 318 -16 q 124 174 166 86 q 83 375 83 262 q 125 578 83 489 q 239 718 166 666 q 406 769 312 769 q 527 744 470 769 q 627 670 583 718 q 696 555 671 622 q 721 403 721 487 l 721 365 l 121 365 l 121 420 l 660 420 q 627 569 660 503 q 536 674 593 635 q 406 713 478 713 q 272 671 330 713 q 178 557 213 628 q 143 397 144 485 l 143 372 q 176 202 143 278 q 271 84 209 127 q 420 40 333 40 q 527 61 482 40 q 599 112 571 82 q 641 170 627 142 l 696 148 q 642 72 679 110 q 551 9 606 35 q 420 -16 495 -16 m 373 866 l 506 1084 l 577 1084 l 429 866 l 373 866 z "},"ê":{"ha":803,"x_min":83,"x_max":721,"o":"m 420 -16 q 242 35 318 -16 q 124 174 166 86 q 83 375 83 262 q 125 578 83 489 q 239 718 166 666 q 406 769 312 769 q 527 744 470 769 q 627 670 583 718 q 696 555 671 622 q 721 403 721 487 l 721 365 l 121 365 l 121 420 l 660 420 q 627 569 660 503 q 536 674 593 635 q 406 713 478 713 q 272 671 330 713 q 178 557 213 628 q 143 397 144 485 l 143 372 q 176 202 143 278 q 271 84 209 127 q 420 40 333 40 q 527 61 482 40 q 599 112 571 82 q 641 170 627 142 l 696 148 q 642 72 679 110 q 551 9 606 35 q 420 -16 495 -16 m 535 840 l 402 988 l 270 840 l 208 840 l 208 846 l 382 1038 l 423 1038 l 597 846 l 597 840 l 535 840 z "},"f":{"ha":473,"x_min":75,"x_max":449,"o":"m 411 758 l 411 704 l 75 704 l 75 758 l 411 758 m 185 0 l 185 875 q 212 973 185 933 q 280 1035 238 1014 q 372 1056 323 1056 q 417 1052 399 1056 q 449 1042 436 1048 l 432 989 q 407 996 420 993 q 376 999 394 999 q 282 964 319 999 q 245 866 245 929 l 245 0 l 185 0 z "},"g":{"ha":823,"x_min":83,"x_max":695,"o":"m 398 -300 q 271 -281 327 -300 q 176 -229 215 -263 q 116 -148 137 -195 l 166 -118 q 214 -183 183 -155 q 291 -228 245 -212 q 398 -245 337 -245 q 571 -188 508 -245 q 635 -15 635 -132 l 635 173 l 629 173 q 578 86 612 124 q 496 26 545 47 q 385 4 447 4 q 227 50 295 4 q 121 181 159 97 q 83 379 83 265 q 120 581 83 493 q 225 719 157 669 q 385 769 293 769 q 499 744 451 769 q 580 678 547 719 q 630 588 612 637 l 637 588 l 637 758 l 695 758 l 695 -18 q 658 -175 695 -112 q 554 -269 620 -238 q 398 -300 487 -300 m 390 60 q 521 98 466 60 q 606 209 576 137 q 636 379 636 281 q 607 550 636 475 q 522 669 578 626 q 390 713 467 713 q 256 669 312 713 q 172 549 201 624 q 143 379 143 473 q 172 213 143 285 q 257 100 202 141 q 390 60 312 60 z "},"h":{"ha":799,"x_min":125,"x_max":675,"o":"m 185 491 l 185 0 l 125 0 l 125 1010 l 185 1010 l 185 638 l 191 638 q 276 732 218 697 q 416 767 334 767 q 551 735 493 767 q 642 643 609 703 q 675 500 675 583 l 675 0 l 615 0 l 615 497 q 557 653 615 594 q 405 712 500 712 q 291 684 341 712 q 213 607 242 656 q 185 491 185 557 z "},"i":{"ha":315,"x_min":109,"x_max":207,"o":"m 128 0 l 128 758 l 187 758 l 187 0 l 128 0 m 158 892 q 124 906 138 892 q 109 939 109 919 q 123 973 109 959 q 158 986 138 986 q 192 973 178 986 q 207 939 207 959 q 192 906 207 919 q 158 892 178 892 z "},"ı":{"ha":315,"x_min":128,"x_max":187,"o":"m 128 0 l 128 758 l 187 758 l 187 0 l 128 0 z "},"ï":{"ha":315,"x_min":0,"x_max":316,"o":"m 128 0 l 128 758 l 187 758 l 187 0 l 128 0 m 47 892 q 14 906 29 892 q 0 939 0 920 q 14 973 0 959 q 47 986 29 986 q 81 973 67 986 q 95 939 95 959 q 81 906 95 920 q 47 892 67 892 m 268 892 q 235 906 250 892 q 221 939 221 920 q 235 973 221 959 q 268 986 250 986 q 302 973 288 986 q 316 939 316 959 q 302 906 316 920 q 268 892 288 892 z "},"ì":{"ha":315,"x_min":-17,"x_max":187,"o":"m 128 0 l 128 758 l 187 758 l 187 0 l 128 0 m 131 866 l -17 1084 l 54 1084 l 186 866 l 131 866 z "},"í":{"ha":315,"x_min":128,"x_max":333,"o":"m 128 0 l 128 758 l 187 758 l 187 0 l 128 0 m 129 866 l 261 1084 l 332 1084 l 184 866 l 129 866 z "},"î":{"ha":315,"x_min":-37,"x_max":353,"o":"m 128 0 l 128 758 l 187 758 l 187 0 l 128 0 m 291 840 l 158 988 l 25 840 l -37 840 l -37 846 l 138 1038 l 178 1038 l 353 846 l 353 840 l 291 840 z "},"j":{"ha":315,"x_min":-19,"x_max":206,"o":"m 128 758 l 187 758 l 187 -92 q 163 -194 187 -151 q 97 -261 139 -237 q 0 -284 55 -284 q -9 -284 -4 -284 q -19 -283 -13 -284 l -16 -227 q -9 -227 -12 -227 q -1 -227 -5 -227 q 91 -191 54 -227 q 128 -92 128 -155 l 128 758 m 157 892 q 123 906 137 892 q 109 939 109 919 q 123 973 109 959 q 157 986 137 986 q 191 973 177 986 q 206 939 206 959 q 191 906 206 919 q 157 892 177 892 z "},"k":{"ha":703,"x_min":125,"x_max":665,"o":"m 177 296 l 176 382 l 192 382 l 571 758 l 649 758 l 301 412 l 295 410 l 177 296 m 125 0 l 125 1010 l 185 1010 l 185 0 l 125 0 m 588 0 l 268 404 l 312 444 l 665 0 l 588 0 z "},"l":{"ha":310,"x_min":125,"x_max":185,"o":"m 185 1010 l 185 0 l 125 0 l 125 1010 l 185 1010 z "},"m":{"ha":1176,"x_min":125,"x_max":1051,"o":"m 125 0 l 125 758 l 183 758 l 183 643 l 189 643 q 264 734 211 700 q 393 767 318 767 q 526 728 475 767 q 598 621 576 689 l 604 621 q 683 727 626 688 q 825 767 741 767 q 993 698 935 767 q 1051 509 1051 629 l 1051 0 l 991 0 l 991 509 q 945 657 991 603 q 812 712 900 712 q 668 653 719 712 q 618 504 618 594 l 618 0 l 558 0 l 558 512 q 513 656 558 601 q 380 712 469 712 q 276 684 320 712 q 209 608 233 656 q 185 497 185 560 l 185 0 l 125 0 z "},"n":{"ha":797,"x_min":125,"x_max":672,"o":"m 185 491 l 185 0 l 125 0 l 125 758 l 183 758 l 183 638 l 189 638 q 275 732 216 696 q 414 767 333 767 q 549 735 491 767 q 639 642 607 702 q 672 500 672 582 l 672 0 l 612 0 l 612 497 q 555 653 612 594 q 403 712 497 712 q 291 684 340 712 q 213 607 241 656 q 185 491 185 557 z "},"ñ":{"ha":797,"x_min":125,"x_max":672,"o":"m 185 491 l 185 0 l 125 0 l 125 758 l 183 758 l 183 638 l 189 638 q 275 732 216 696 q 414 767 333 767 q 549 735 491 767 q 639 642 607 702 q 672 500 672 582 l 672 0 l 612 0 l 612 497 q 555 653 612 594 q 403 712 497 712 q 291 684 340 712 q 213 607 241 656 q 185 491 185 557 m 219 876 l 168 880 q 211 971 172 936 q 304 1007 250 1007 q 360 995 336 1007 q 404 969 384 984 q 445 943 424 955 q 493 932 466 932 q 550 953 525 932 q 581 1008 576 975 l 632 1000 q 585 911 624 945 q 495 877 546 877 q 440 889 463 877 q 399 915 418 900 q 358 941 379 929 q 306 952 337 952 q 247 930 271 952 q 219 876 222 908 z "},"o":{"ha":813,"x_min":83,"x_max":730,"o":"m 406 -16 q 240 35 313 -16 q 125 174 167 85 q 83 376 83 263 q 125 579 83 490 q 240 718 167 667 q 406 769 313 769 q 573 718 500 769 q 688 579 646 667 q 730 376 730 490 q 688 174 730 263 q 573 35 646 85 q 406 -16 500 -16 m 406 40 q 545 85 486 40 q 637 206 605 130 q 670 376 670 283 q 637 546 670 470 q 545 668 604 622 q 406 713 486 713 q 268 668 327 713 q 176 546 209 622 q 143 376 143 470 q 175 206 143 283 q 268 85 208 130 q 406 40 327 40 z "},"ö":{"ha":813,"x_min":83,"x_max":730,"o":"m 406 -16 q 240 35 313 -16 q 125 174 167 85 q 83 376 83 263 q 125 579 83 490 q 240 718 167 667 q 406 769 313 769 q 573 718 500 769 q 688 579 646 667 q 730 376 730 490 q 688 174 730 263 q 573 35 646 85 q 406 -16 500 -16 m 406 40 q 545 85 486 40 q 637 206 605 130 q 670 376 670 283 q 637 546 670 470 q 545 668 604 622 q 406 713 486 713 q 268 668 327 713 q 176 546 209 622 q 143 376 143 470 q 175 206 143 283 q 268 85 208 130 q 406 40 327 40 m 296 892 q 263 906 277 892 q 249 939 249 920 q 263 973 249 959 q 296 986 277 986 q 329 973 316 986 q 343 939 343 959 q 329 906 343 920 q 296 892 316 892 m 517 892 q 484 906 498 892 q 470 939 470 920 q 484 973 470 959 q 517 986 498 986 q 550 973 537 986 q 564 939 564 959 q 550 906 564 920 q 517 892 537 892 z "},"õ":{"ha":813,"x_min":83,"x_max":730,"o":"m 406 -16 q 240 35 313 -16 q 125 174 167 85 q 83 376 83 263 q 125 579 83 490 q 240 718 167 667 q 406 769 313 769 q 573 718 500 769 q 688 579 646 667 q 730 376 730 490 q 688 174 730 263 q 573 35 646 85 q 406 -16 500 -16 m 406 40 q 545 85 486 40 q 637 206 605 130 q 670 376 670 283 q 637 546 670 470 q 545 668 604 622 q 406 713 486 713 q 268 668 327 713 q 176 546 209 622 q 143 376 143 470 q 175 206 143 283 q 268 85 208 130 q 406 40 327 40 m 226 876 l 175 880 q 218 971 179 936 q 311 1007 256 1007 q 367 995 343 1007 q 411 969 391 984 q 452 943 431 955 q 500 932 473 932 q 557 953 532 932 q 588 1008 583 975 l 639 1000 q 592 911 631 945 q 502 877 553 877 q 447 889 470 877 q 405 915 425 900 q 365 941 386 929 q 313 952 344 952 q 254 930 278 952 q 226 876 229 908 z "},"ø":{"ha":813,"x_min":83,"x_max":730,"o":"m 165 -27 l 122 2 l 648 783 l 691 754 l 165 -27 m 406 -14 q 240 36 313 -14 q 125 175 167 87 q 83 377 83 264 q 125 580 83 492 q 240 719 167 669 q 406 770 313 770 q 573 719 500 770 q 688 580 646 668 q 730 377 730 491 q 688 175 730 264 q 573 36 646 87 q 406 -14 500 -14 m 406 41 q 545 86 486 41 q 637 207 605 131 q 670 377 670 284 q 637 547 670 471 q 545 669 604 624 q 406 714 486 714 q 268 669 327 714 q 176 547 209 624 q 143 377 143 471 q 175 207 143 284 q 268 86 208 131 q 406 41 327 41 z "},"ò":{"ha":813,"x_min":83,"x_max":730,"o":"m 406 -16 q 240 35 313 -16 q 125 174 167 85 q 83 376 83 263 q 125 579 83 490 q 240 718 167 667 q 406 769 313 769 q 573 718 500 769 q 688 579 646 667 q 730 376 730 490 q 688 174 730 263 q 573 35 646 85 q 406 -16 500 -16 m 406 40 q 545 85 486 40 q 637 206 605 130 q 670 376 670 283 q 637 546 670 470 q 545 668 604 622 q 406 713 486 713 q 268 668 327 713 q 176 546 209 622 q 143 376 143 470 q 175 206 143 283 q 268 85 208 130 q 406 40 327 40 m 380 866 l 231 1084 l 303 1084 l 435 866 l 380 866 z "},"ó":{"ha":813,"x_min":83,"x_max":730,"o":"m 406 -16 q 240 35 313 -16 q 125 174 167 85 q 83 376 83 263 q 125 579 83 490 q 240 718 167 667 q 406 769 313 769 q 573 718 500 769 q 688 579 646 667 q 730 376 730 490 q 688 174 730 263 q 573 35 646 85 q 406 -16 500 -16 m 406 40 q 545 85 486 40 q 637 206 605 130 q 670 376 670 283 q 637 546 670 470 q 545 668 604 622 q 406 713 486 713 q 268 668 327 713 q 176 546 209 622 q 143 376 143 470 q 175 206 143 283 q 268 85 208 130 q 406 40 327 40 m 377 866 l 509 1084 l 581 1084 l 433 866 l 377 866 z "},"ô":{"ha":813,"x_min":83,"x_max":730,"o":"m 406 -16 q 240 35 313 -16 q 125 174 167 85 q 83 376 83 263 q 125 579 83 490 q 240 718 167 667 q 406 769 313 769 q 573 718 500 769 q 688 579 646 667 q 730 376 730 490 q 688 174 730 263 q 573 35 646 85 q 406 -16 500 -16 m 406 40 q 545 85 486 40 q 637 206 605 130 q 670 376 670 283 q 637 546 670 470 q 545 668 604 622 q 406 713 486 713 q 268 668 327 713 q 176 546 209 622 q 143 376 143 470 q 175 206 143 283 q 268 85 208 130 q 406 40 327 40 m 539 840 l 406 988 l 274 840 l 212 840 l 212 846 l 386 1038 l 427 1038 l 601 846 l 601 840 l 539 840 z "},"œ":{"ha":1387,"x_min":81,"x_max":1308,"o":"m 405 -16 q 238 35 311 -16 q 123 174 165 85 q 81 376 81 263 q 123 579 81 490 q 238 718 165 667 q 405 769 311 769 q 572 718 499 769 q 687 579 645 667 q 728 376 728 490 q 687 174 728 263 q 572 35 645 85 q 405 -16 499 -16 m 405 40 q 544 85 484 40 q 636 206 603 130 q 669 376 669 283 q 636 546 669 470 q 544 668 603 622 q 405 713 484 713 q 266 668 326 713 q 174 546 207 622 q 141 376 141 470 q 174 206 141 283 q 266 85 207 130 q 405 40 326 40 m 1008 -16 q 829 35 905 -16 q 712 174 753 86 q 670 375 670 262 q 712 578 670 489 q 827 718 754 666 q 993 769 900 769 q 1114 744 1057 769 q 1215 670 1171 718 q 1283 555 1258 622 q 1308 403 1308 487 l 1308 365 l 708 365 l 708 420 l 1248 420 q 1214 569 1248 503 q 1123 674 1181 635 q 993 713 1065 713 q 859 671 918 713 q 766 557 800 628 q 730 397 731 485 l 730 372 q 763 202 730 278 q 859 84 797 127 q 1008 40 921 40 q 1114 61 1070 40 q 1186 112 1158 82 q 1229 170 1214 142 l 1283 148 q 1230 72 1266 110 q 1138 9 1194 35 q 1008 -16 1083 -16 z "},"p":{"ha":820,"x_min":125,"x_max":737,"o":"m 125 -284 l 125 758 l 183 758 l 183 588 l 191 588 q 241 678 209 637 q 321 744 273 719 q 435 769 369 769 q 594 719 526 769 q 700 580 662 668 q 737 377 737 491 q 700 174 737 262 q 594 35 662 85 q 436 -16 526 -16 q 322 9 371 -16 q 241 75 274 34 q 191 165 208 116 l 185 165 l 185 -284 l 125 -284 m 184 377 q 214 204 184 281 q 298 84 243 128 q 430 40 354 40 q 563 85 508 40 q 648 206 618 129 q 677 377 677 282 q 648 548 677 472 q 564 669 619 624 q 430 713 509 713 q 298 669 353 713 q 213 550 243 625 q 184 377 184 474 z "},"q":{"ha":820,"x_min":83,"x_max":695,"o":"m 635 -284 l 635 165 l 629 165 q 579 75 612 116 q 498 9 546 34 q 385 -16 449 -16 q 226 35 294 -16 q 121 174 158 85 q 83 377 83 262 q 120 580 83 491 q 226 719 158 668 q 385 769 294 769 q 499 744 451 769 q 579 678 546 719 q 629 588 612 637 l 637 588 l 637 758 l 695 758 l 695 -284 l 635 -284 m 390 40 q 522 84 467 40 q 606 204 577 128 q 636 377 636 281 q 607 550 636 474 q 522 669 578 625 q 390 713 467 713 q 256 669 312 713 q 172 548 201 624 q 143 377 143 472 q 172 206 143 282 q 257 85 202 129 q 390 40 312 40 z "},"r":{"ha":473,"x_min":125,"x_max":436,"o":"m 125 0 l 125 758 l 183 758 l 183 639 l 189 639 q 272 733 214 697 q 406 768 331 768 q 422 768 414 768 q 436 767 430 768 l 436 707 q 422 709 431 707 q 402 710 414 710 q 290 683 339 710 q 213 608 241 655 q 185 499 185 560 l 185 0 l 125 0 z "},"s":{"ha":698,"x_min":86,"x_max":615,"o":"m 606 594 l 550 580 q 512 651 537 621 q 451 698 488 681 q 362 714 413 714 q 225 673 278 714 q 172 565 172 631 q 208 475 172 510 q 318 422 244 440 l 435 393 q 570 321 524 370 q 615 198 615 271 q 581 87 615 135 q 487 11 547 38 q 348 -16 427 -16 q 174 34 242 -16 q 86 176 106 83 l 144 191 q 212 78 160 117 q 347 39 263 39 q 497 83 440 39 q 554 196 554 127 q 520 284 554 248 q 419 337 487 320 l 298 366 q 159 439 205 389 q 112 563 112 489 q 145 670 112 624 q 233 743 177 717 q 362 769 289 769 q 518 724 458 769 q 606 594 579 678 z "},"ß":{"ha":814,"x_min":146,"x_max":717,"o":"m 146 0 l 146 757 q 179 899 146 838 q 272 991 212 959 q 410 1024 331 1024 q 543 993 485 1024 q 634 907 601 962 q 666 775 666 851 q 618 620 666 685 q 487 529 570 555 l 487 523 q 656 437 596 503 q 717 269 717 372 q 681 128 717 189 q 579 34 645 68 q 424 0 512 0 l 341 0 l 341 57 l 430 57 q 549 84 498 57 q 629 157 600 110 q 657 265 657 204 q 583 428 657 366 q 384 489 509 489 l 345 489 l 345 547 l 376 547 q 498 576 446 547 q 578 656 549 606 q 606 769 606 707 q 553 912 606 858 q 411 967 500 967 q 262 909 318 967 q 206 752 206 851 l 206 0 l 146 0 z "},"t":{"ha":491,"x_min":62,"x_max":428,"o":"m 393 758 l 393 704 l 62 704 l 62 758 l 393 758 m 174 939 l 233 939 l 233 179 q 251 103 233 133 q 299 60 269 74 q 362 46 328 46 q 390 48 378 46 q 413 55 402 51 l 428 0 q 397 -9 414 -5 q 358 -12 380 -12 q 268 9 310 -12 q 200 71 226 30 q 174 168 174 111 l 174 939 z "},"u":{"ha":795,"x_min":125,"x_max":670,"o":"m 610 269 l 610 758 l 670 758 l 670 0 l 610 0 l 610 123 l 605 123 q 519 27 579 64 q 379 -10 460 -10 q 247 23 304 -10 q 157 115 190 55 q 125 258 125 175 l 125 758 l 185 758 l 185 260 q 242 107 185 166 q 391 49 300 49 q 500 75 450 49 q 580 152 550 102 q 610 269 610 201 z "},"ü":{"ha":795,"x_min":125,"x_max":670,"o":"m 610 269 l 610 758 l 670 758 l 670 0 l 610 0 l 610 123 l 605 123 q 519 27 579 64 q 379 -10 460 -10 q 247 23 304 -10 q 157 115 190 55 q 125 258 125 175 l 125 758 l 185 758 l 185 260 q 242 107 185 166 q 391 49 300 49 q 500 75 450 49 q 580 152 550 102 q 610 269 610 201 m 288 892 q 254 906 269 892 q 240 939 240 920 q 254 973 240 959 q 288 986 269 986 q 321 973 307 986 q 335 939 335 959 q 321 906 335 920 q 288 892 307 892 m 509 892 q 475 906 490 892 q 461 939 461 920 q 475 973 461 959 q 509 986 490 986 q 542 973 528 986 q 556 939 556 959 q 542 906 556 920 q 509 892 528 892 z "},"µ":{"ha":810,"x_min":122,"x_max":689,"o":"m 122 -291 l 122 758 l 182 758 l 182 269 q 211 155 182 204 q 290 77 239 105 q 406 49 340 49 q 522 77 472 49 q 601 155 572 105 q 629 269 629 205 l 629 758 l 689 758 l 689 0 l 629 0 l 629 118 l 625 118 q 538 24 597 58 q 406 -10 479 -10 q 274 24 332 -10 q 187 118 215 58 l 182 118 l 182 -291 l 122 -291 z "},"ù":{"ha":795,"x_min":125,"x_max":670,"o":"m 610 269 l 610 758 l 670 758 l 670 0 l 610 0 l 610 123 l 605 123 q 519 27 579 64 q 379 -10 460 -10 q 247 23 304 -10 q 157 115 190 55 q 125 258 125 175 l 125 758 l 185 758 l 185 260 q 242 107 185 166 q 391 49 300 49 q 500 75 450 49 q 580 152 550 102 q 610 269 610 201 m 371 866 l 223 1084 l 294 1084 l 427 866 l 371 866 z "},"ú":{"ha":795,"x_min":125,"x_max":670,"o":"m 610 269 l 610 758 l 670 758 l 670 0 l 610 0 l 610 123 l 605 123 q 519 27 579 64 q 379 -10 460 -10 q 247 23 304 -10 q 157 115 190 55 q 125 258 125 175 l 125 758 l 185 758 l 185 260 q 242 107 185 166 q 391 49 300 49 q 500 75 450 49 q 580 152 550 102 q 610 269 610 201 m 369 866 l 501 1084 l 573 1084 l 424 866 l 369 866 z "},"û":{"ha":795,"x_min":125,"x_max":670,"o":"m 610 269 l 610 758 l 670 758 l 670 0 l 610 0 l 610 123 l 605 123 q 519 27 579 64 q 379 -10 460 -10 q 247 23 304 -10 q 157 115 190 55 q 125 258 125 175 l 125 758 l 185 758 l 185 260 q 242 107 185 166 q 391 49 300 49 q 500 75 450 49 q 580 152 550 102 q 610 269 610 201 m 531 840 l 398 988 l 265 840 l 203 840 l 203 846 l 378 1038 l 418 1038 l 593 846 l 593 840 l 531 840 z "},"v":{"ha":742,"x_min":63,"x_max":679,"o":"m 679 758 l 405 0 l 337 0 l 63 758 l 128 758 l 368 77 l 373 77 l 614 758 l 679 758 z "},"w":{"ha":1107,"x_min":63,"x_max":1044,"o":"m 290 0 l 63 758 l 126 758 l 322 88 l 327 88 l 523 758 l 585 758 l 781 89 l 786 89 l 981 758 l 1044 758 l 817 0 l 750 0 l 557 659 l 550 659 l 357 0 l 290 0 z "},"x":{"ha":713,"x_min":77,"x_max":635,"o":"m 147 758 l 357 421 l 566 758 l 635 758 l 393 379 l 635 0 l 566 0 l 357 331 l 147 0 l 77 0 l 319 379 l 77 758 l 147 758 z "},"y":{"ha":742,"x_min":63,"x_max":679,"o":"m 173 -284 q 128 -279 150 -284 q 88 -266 106 -274 l 106 -214 q 190 -226 152 -231 q 257 -192 228 -221 q 306 -105 286 -162 l 341 -10 l 63 758 l 128 758 l 368 77 l 373 77 l 614 758 l 679 758 l 359 -129 q 313 -215 341 -180 q 250 -267 286 -249 q 173 -284 215 -284 z "},"ÿ":{"ha":742,"x_min":63,"x_max":679,"o":"m 173 -284 q 128 -279 150 -284 q 88 -266 106 -274 l 106 -214 q 190 -226 152 -231 q 257 -192 228 -221 q 306 -105 286 -162 l 341 -10 l 63 758 l 128 758 l 368 77 l 373 77 l 614 758 l 679 758 l 359 -129 q 313 -215 341 -180 q 250 -267 286 -249 q 173 -284 215 -284 m 260 892 q 227 906 242 892 q 213 939 213 920 q 227 973 213 959 q 260 986 242 986 q 294 973 280 986 q 308 939 308 959 q 294 906 308 920 q 260 892 280 892 m 481 892 q 448 906 463 892 q 434 939 434 920 q 448 973 434 959 q 481 986 463 986 q 515 973 501 986 q 529 939 529 959 q 515 906 529 920 q 481 892 501 892 z "},"ý":{"ha":742,"x_min":63,"x_max":679,"o":"m 173 -284 q 128 -279 150 -284 q 88 -266 106 -274 l 106 -214 q 190 -226 152 -231 q 257 -192 228 -221 q 306 -105 286 -162 l 341 -10 l 63 758 l 128 758 l 368 77 l 373 77 l 614 758 l 679 758 l 359 -129 q 313 -215 341 -180 q 250 -267 286 -249 q 173 -284 215 -284 m 342 866 l 474 1084 l 545 1084 l 397 866 l 342 866 z "},"z":{"ha":722,"x_min":99,"x_max":639,"o":"m 99 0 l 99 51 l 545 695 l 545 700 l 124 700 l 124 758 l 621 758 l 621 706 l 180 63 l 180 57 l 639 57 l 639 0 l 99 0 z "},"Þ":{"ha":839,"x_min":134,"x_max":728,"o":"m 134 1010 l 195 1010 l 195 0 l 134 0 l 134 1010 m 164 779 l 422 779 q 586 745 517 779 q 692 649 655 710 q 728 509 728 588 q 692 366 728 427 q 588 271 656 305 q 422 237 519 237 l 164 237 l 164 294 l 422 294 q 556 319 501 294 q 639 392 611 344 q 669 507 668 439 q 639 622 668 574 q 555 696 610 670 q 422 722 500 722 l 164 722 l 164 779 z "},"ð":{"ha":817,"x_min":83,"x_max":735,"o":"m 661 981 l 269 799 l 253 844 l 645 1026 l 661 981 m 409 -16 q 241 32 315 -16 q 125 164 167 80 q 83 351 83 247 q 125 538 83 455 q 239 669 167 621 q 399 717 311 717 q 503 698 456 717 q 586 645 549 679 q 649 565 622 611 l 655 565 q 575 737 627 653 q 445 895 523 821 q 262 1024 367 969 l 286 1073 q 464 949 382 1022 q 606 784 545 875 q 701 589 667 693 q 734 371 734 485 q 692 165 735 252 q 576 31 650 78 q 409 -16 503 -16 m 409 40 q 548 81 488 40 q 642 192 608 122 q 677 348 677 262 q 643 504 677 432 q 550 619 610 576 q 409 663 490 663 q 271 621 331 663 q 177 508 211 579 q 143 351 143 437 q 176 195 143 265 q 269 82 210 124 q 409 40 329 40 z "},"þ":{"ha":815,"x_min":122,"x_max":734,"o":"m 122 1010 l 182 1010 l 182 503 l 166 381 l 182 239 l 182 -284 l 122 -284 l 122 1010 m 156 588 l 188 588 q 238 678 206 637 q 319 744 271 719 q 432 769 367 769 q 592 719 524 769 q 697 580 659 668 q 734 377 734 491 q 697 174 734 262 q 591 35 659 85 q 433 -16 523 -16 q 320 9 368 -16 q 238 75 271 34 q 188 165 206 116 l 156 165 l 156 588 m 675 377 q 646 548 675 472 q 561 669 617 624 q 428 713 506 713 q 295 669 350 713 q 211 550 240 625 q 182 377 182 474 q 211 204 182 281 q 296 84 241 128 q 428 40 351 40 q 560 85 505 40 q 645 206 616 129 q 675 377 675 282 z "},"$":{"ha":862,"x_min":97,"x_max":765,"o":"m 408 -126 l 408 1136 l 456 1136 l 456 -126 l 408 -126 m 690 758 q 614 910 683 852 q 436 968 545 968 q 305 941 363 968 q 216 867 248 914 q 183 760 183 820 q 198 689 183 721 q 241 634 213 658 q 306 591 268 609 q 390 559 344 573 l 501 526 q 605 486 557 509 q 689 432 654 464 q 745 359 725 401 q 765 262 765 317 q 724 119 765 182 q 607 20 683 56 q 429 -16 531 -16 q 259 17 331 -16 q 145 109 186 50 q 97 245 103 168 l 160 245 q 200 136 165 182 q 294 66 236 91 q 429 41 353 41 q 572 69 510 41 q 669 147 634 97 q 704 263 704 197 q 679 354 704 316 q 605 420 654 392 q 483 469 556 447 l 365 505 q 185 603 247 541 q 122 758 122 665 q 164 896 122 836 q 276 991 205 956 q 437 1025 348 1025 q 597 991 528 1025 q 706 895 666 956 q 751 758 747 835 l 690 758 z "},"¢":{"ha":770,"x_min":83,"x_max":690,"o":"m 381 0 l 381 1010 l 429 1010 l 429 0 l 381 0 m 409 113 q 239 164 312 113 q 124 304 165 215 q 83 505 83 392 q 124 706 83 617 q 239 846 166 795 q 408 897 313 897 q 540 868 480 897 q 638 786 599 838 q 689 663 678 733 l 627 663 q 554 791 613 740 q 409 841 495 841 q 272 798 332 841 q 177 679 212 755 q 143 506 143 604 q 176 333 143 410 q 270 213 210 257 q 409 169 330 169 q 511 191 465 169 q 588 254 557 213 q 629 350 619 294 l 690 350 q 641 226 679 280 q 543 143 602 173 q 409 113 483 113 z "},"¥":{"ha":738,"x_min":26,"x_max":712,"o":"m 95 1010 l 391 440 l 335 427 l 26 1010 l 95 1010 m 347 440 l 643 1010 l 712 1010 l 402 427 l 347 440 m 400 490 l 400 0 l 338 0 l 338 490 l 400 490 m 631 469 l 631 418 l 107 418 l 107 469 l 631 469 m 631 324 l 631 273 l 107 273 l 107 324 l 631 324 z "},"£":{"ha":876,"x_min":103,"x_max":763,"o":"m 737 0 l 104 0 l 104 57 l 737 57 l 737 0 m 540 411 l 103 411 l 103 470 l 540 470 l 540 411 m 285 730 l 299 223 q 279 95 302 148 q 200 28 255 42 l 151 57 q 205 82 185 57 q 233 145 224 107 q 239 223 241 183 l 225 730 q 259 887 223 821 q 358 988 295 953 q 499 1024 421 1024 q 612 1002 561 1024 q 698 943 663 981 q 749 858 734 906 q 752 758 763 810 l 693 774 q 679 872 703 828 q 607 942 654 916 q 501 967 560 967 q 389 938 439 967 q 312 857 340 909 q 285 730 284 804 z "},"€":{"ha":941,"x_min":43,"x_max":836,"o":"m 710 639 l 684 584 l 43 584 l 66 639 l 710 639 m 613 426 l 587 371 l 43 371 l 66 426 l 613 426 m 836 917 l 811 863 q 742 918 779 895 q 661 953 704 941 q 572 965 618 965 q 389 908 469 965 q 264 747 309 851 q 218 505 218 644 q 264 263 218 366 q 389 102 309 159 q 572 45 469 45 q 661 57 619 45 q 739 91 702 69 q 807 144 776 113 l 833 89 q 715 13 782 39 q 572 -14 648 -14 q 357 52 451 -14 q 211 234 264 117 q 158 505 158 351 q 211 776 158 659 q 357 959 264 893 q 572 1024 451 1024 q 717 996 651 1024 q 836 917 784 968 z "},"&":{"ha":836,"x_min":83,"x_max":811,"o":"m 379 -14 q 226 22 293 -14 q 121 120 159 58 q 83 258 83 181 q 103 352 83 309 q 164 436 123 395 q 269 525 206 478 l 416 635 q 507 722 478 681 q 536 815 536 763 q 493 923 536 878 q 383 968 450 968 q 300 945 338 968 q 240 884 262 921 q 218 803 218 846 q 234 737 218 770 q 279 665 250 704 q 351 574 309 626 l 811 0 l 738 0 l 316 526 q 231 632 267 586 q 177 718 196 677 q 157 804 157 759 q 187 915 157 865 q 268 993 217 964 q 382 1022 319 1022 q 494 995 445 1022 q 569 921 542 968 q 596 815 596 873 q 562 698 596 751 q 456 590 528 646 l 290 467 q 175 355 207 404 q 144 258 144 305 q 174 150 144 199 q 258 72 205 101 q 378 41 311 42 q 504 68 446 42 q 606 140 562 94 q 678 250 650 186 q 714 392 706 314 l 773 389 q 751 278 768 327 q 712 192 734 229 q 670 128 690 154 q 659 113 664 120 q 647 99 654 106 q 525 16 597 45 q 379 -14 453 -14 z "},"!":{"ha":371,"x_min":132,"x_max":239,"o":"m 218 1010 l 215 294 l 156 294 l 152 1010 l 218 1010 m 185 -6 q 148 9 163 -6 q 132 47 132 25 q 148 84 132 69 q 185 100 164 100 q 223 84 207 100 q 239 47 239 69 q 232 20 239 32 q 212 1 224 8 q 185 -6 200 -6 z "},"¡":{"ha":371,"x_min":132,"x_max":239,"o":"m 218 -256 l 152 -256 l 156 459 l 215 459 l 218 -256 m 185 760 q 223 745 208 760 q 239 707 239 729 q 223 669 239 685 q 185 654 207 654 q 148 669 164 654 q 132 707 132 685 q 139 734 132 722 q 159 753 146 746 q 185 760 171 760 z "},"?":{"ha":678,"x_min":62,"x_max":602,"o":"m 278 294 l 278 343 q 293 446 279 404 q 338 521 307 488 q 420 587 369 554 q 490 645 463 617 q 529 705 517 674 q 542 773 542 736 q 515 875 542 831 q 441 944 487 919 q 336 969 394 969 q 230 943 278 969 q 154 869 183 916 q 124 758 126 822 l 62 758 q 99 896 63 836 q 197 990 136 956 q 336 1024 259 1024 q 473 991 413 1024 q 568 901 534 958 q 602 771 602 844 q 587 687 602 725 q 541 615 573 649 q 459 545 509 581 q 387 485 413 514 q 350 423 361 457 q 339 343 339 390 l 339 294 l 278 294 m 310 -6 q 272 9 288 -6 q 256 47 256 25 q 272 84 256 69 q 310 100 288 100 q 347 84 332 100 q 363 47 363 69 q 356 20 363 32 q 337 1 349 8 q 310 -6 325 -6 z "},"¿":{"ha":678,"x_min":75,"x_max":616,"o":"m 400 466 l 400 418 q 385 315 400 357 q 339 240 370 273 q 258 174 308 208 q 188 116 216 145 q 149 56 161 87 q 136 -12 136 25 q 164 -114 136 -70 q 237 -183 191 -158 q 342 -208 284 -208 q 448 -182 400 -208 q 524 -108 495 -155 q 554 3 552 -61 l 616 3 q 579 -135 615 -75 q 481 -229 543 -195 q 342 -263 419 -263 q 205 -230 265 -263 q 110 -140 145 -197 q 75 -10 75 -83 q 91 74 75 36 q 137 147 106 112 q 219 216 169 181 q 291 276 265 247 q 328 338 317 304 q 339 418 339 371 l 339 466 l 400 466 m 368 767 q 406 752 390 767 q 422 714 422 736 q 406 676 422 692 q 368 661 390 661 q 331 676 346 661 q 315 714 315 692 q 322 741 315 729 q 342 760 329 753 q 368 767 354 767 z "},"(":{"ha":460,"x_min":157,"x_max":373,"o":"m 157 426 q 199 754 157 595 q 317 1057 240 913 l 373 1057 q 308 914 337 990 q 260 757 280 838 q 229 592 240 675 q 218 426 218 509 q 237 205 218 316 q 291 -11 256 93 q 373 -205 326 -116 l 317 -205 q 199 99 240 -60 q 157 426 157 258 z "},")":{"ha":460,"x_min":86,"x_max":302,"o":"m 302 426 q 261 98 302 257 q 143 -205 220 -61 l 86 -205 q 151 -62 123 -138 q 200 96 180 14 q 231 260 220 177 q 241 426 241 344 q 222 648 241 536 q 169 864 204 759 q 86 1057 135 968 l 143 1057 q 261 753 220 912 q 302 426 302 594 z "},"[":{"ha":460,"x_min":170,"x_max":383,"o":"m 170 -205 l 170 1057 l 383 1057 l 383 1004 l 228 1004 l 228 -152 l 383 -152 l 383 -205 l 170 -205 z "},"]":{"ha":460,"x_min":76,"x_max":290,"o":"m 290 1057 l 290 -205 l 76 -205 l 76 -152 l 231 -152 l 231 1004 l 76 1004 l 76 1057 l 290 1057 z "},"{":{"ha":460,"x_min":77,"x_max":430,"o":"m 77 415 l 77 456 q 193 489 162 457 q 224 604 224 520 l 224 829 q 236 930 224 887 q 272 1001 248 973 q 336 1044 297 1030 q 430 1057 375 1057 l 430 1004 q 344 986 376 1005 q 296 929 311 968 q 281 829 281 890 l 281 590 q 271 512 281 545 q 239 457 261 479 q 177 425 216 436 q 77 415 137 415 m 430 -205 q 336 -191 375 -205 q 272 -149 297 -178 q 236 -78 248 -121 q 224 24 224 -35 l 224 249 q 193 364 224 332 q 77 396 162 396 l 77 437 q 177 426 137 437 q 239 395 216 416 q 271 340 261 373 q 281 262 281 307 l 281 24 q 296 -76 281 -37 q 344 -134 311 -115 q 430 -152 376 -152 l 430 -205 m 77 396 l 77 456 l 187 456 l 187 396 l 77 396 z "},"}":{"ha":460,"x_min":30,"x_max":382,"o":"m 382 437 l 382 396 q 267 364 298 396 q 235 249 235 332 l 235 24 q 224 -78 235 -35 q 187 -149 212 -121 q 124 -191 163 -178 q 30 -205 85 -205 l 30 -152 q 116 -134 84 -152 q 164 -76 149 -115 q 179 24 179 -37 l 179 262 q 189 340 179 307 q 221 395 198 373 q 283 427 244 416 q 382 437 323 437 m 30 1057 q 124 1044 85 1057 q 187 1001 163 1030 q 224 930 212 973 q 235 829 235 887 l 235 604 q 267 489 235 520 q 382 456 298 457 l 382 415 q 283 426 323 415 q 221 458 244 436 q 189 512 198 479 q 179 590 179 545 l 179 829 q 164 929 179 890 q 116 986 149 968 q 30 1004 84 1005 l 30 1057 m 382 456 l 382 396 l 272 396 l 272 456 l 382 456 z "},"@":{"ha":1300,"x_min":69,"x_max":1232,"o":"m 663 -268 q 424 -222 533 -268 q 235 -92 315 -176 q 112 105 155 -9 q 69 353 69 218 q 112 600 69 487 q 236 796 156 713 q 423 925 315 879 q 659 971 531 971 q 890 924 785 971 q 1072 795 995 877 q 1190 606 1148 713 q 1232 379 1232 499 q 1217 248 1232 311 q 1175 137 1203 185 q 1101 60 1146 88 q 995 32 1056 32 q 928 45 957 32 q 881 89 898 58 q 862 171 864 119 l 857 171 q 804 95 837 129 q 727 43 771 62 q 630 24 684 24 q 519 51 570 25 q 433 122 469 76 q 377 227 397 167 q 357 355 357 287 q 378 481 357 423 q 436 582 399 539 q 523 652 473 626 q 630 679 573 677 q 726 663 681 680 q 803 615 770 646 q 855 543 837 584 l 860 543 l 860 667 l 915 667 l 915 199 q 933 110 915 137 q 996 83 951 83 q 1093 119 1053 83 q 1155 222 1133 155 q 1176 380 1176 289 q 1152 547 1176 467 q 1082 695 1127 628 q 972 813 1036 763 q 828 891 908 864 q 657 919 749 919 q 446 877 543 919 q 277 758 349 835 q 165 578 205 682 q 126 352 126 474 q 165 125 126 229 q 277 -55 205 21 q 448 -173 350 -131 q 665 -215 547 -215 q 771 -204 719 -215 q 870 -175 824 -193 q 951 -134 915 -156 l 973 -181 q 881 -227 932 -208 q 774 -257 830 -247 q 663 -268 719 -268 m 635 79 q 754 114 703 79 q 833 212 804 149 q 862 357 862 275 q 833 500 862 439 q 753 593 803 560 q 637 625 702 625 q 522 589 573 625 q 441 491 471 552 q 412 357 412 431 q 440 218 412 282 q 518 117 468 155 q 635 79 569 79 z "},"#":{"ha":878,"x_min":29,"x_max":850,"o":"m 507 0 l 673 1010 l 727 1010 l 561 0 l 507 0 m 29 302 l 38 357 l 792 357 l 783 302 l 29 302 m 152 0 l 318 1010 l 371 1010 l 206 0 l 152 0 m 87 654 l 96 708 l 850 708 l 840 654 l 87 654 z "},"¤":{"ha":965,"x_min":74,"x_max":888,"o":"m 480 -14 q 326 18 398 -14 q 200 109 254 51 q 115 245 145 167 q 85 412 85 322 q 115 580 85 503 q 200 715 145 657 q 326 804 254 772 q 480 836 398 836 q 636 804 564 836 q 762 715 708 772 q 847 580 816 657 q 877 412 877 503 q 847 245 877 322 q 762 109 816 167 q 636 18 708 51 q 480 -14 564 -14 m 480 43 q 613 72 551 43 q 720 150 674 100 q 792 268 766 201 q 819 412 818 335 q 774 600 819 516 q 652 731 729 683 q 480 780 575 780 q 309 731 386 780 q 187 600 233 683 q 142 412 142 516 q 187 226 142 309 q 309 93 232 142 q 480 43 386 43 m 763 663 l 724 706 l 848 834 l 888 791 l 763 663 m 848 -3 l 724 125 l 763 167 l 888 39 l 848 -3 m 114 -3 l 74 39 l 199 167 l 239 125 l 114 -3 m 199 663 l 74 791 l 114 834 l 239 706 l 199 663 z "},"/":{"ha":464,"x_min":41,"x_max":424,"o":"m 424 1057 l 99 -152 l 41 -152 l 366 1057 l 424 1057 z "},"|":{"ha":404,"x_min":175,"x_max":229,"o":"m 229 1336 l 229 -326 l 175 -326 l 175 1336 l 229 1336 z "},"¦":{"ha":295,"x_min":119,"x_max":176,"o":"m 119 266 l 176 266 l 176 -189 l 119 -189 l 119 266 m 176 1010 l 176 557 l 119 557 l 119 1010 l 176 1010 z "},"\\":{"ha":464,"x_min":40,"x_max":424,"o":"m 365 -152 l 40 1057 l 98 1057 l 424 -152 l 365 -152 z "},"-":{"ha":619,"x_min":110,"x_max":509,"o":"m 509 462 l 509 404 l 110 404 l 110 462 l 509 462 z "},"­":{"ha":619,"x_min":110,"x_max":509,"o":"m 509 462 l 509 404 l 110 404 l 110 462 l 509 462 z "},"–":{"ha":694,"x_min":0,"x_max":694,"o":"m 694 462 l 694 404 l 0 404 l 0 462 l 694 462 z "},"—":{"ha":1389,"x_min":0,"x_max":1389,"o":"m 1389 462 l 1389 404 l 0 404 l 0 462 l 1389 462 z "},"•":{"ha":781,"x_min":234,"x_max":547,"o":"m 391 246 q 312 267 347 246 q 255 324 276 288 q 234 402 234 360 q 255 481 234 446 q 312 538 276 517 q 391 559 347 559 q 469 538 434 559 q 526 481 505 517 q 547 402 547 446 q 526 324 547 360 q 469 267 505 288 q 391 246 434 246 z "},"‘":{"ha":251,"x_min":69,"x_max":225,"o":"m 69 694 l 69 783 q 83 869 69 824 q 126 958 98 915 q 193 1032 153 1000 l 225 999 q 154 899 182 957 q 126 784 126 841 l 126 694 l 69 694 z "},"’":{"ha":230,"x_min":26,"x_max":183,"o":"m 183 1010 l 183 921 q 168 835 183 881 q 126 747 154 790 q 59 673 98 704 l 26 706 q 97 805 69 747 q 125 921 125 863 l 125 1010 l 183 1010 z "},"ʼ":{"ha":296,"x_min":24,"x_max":182,"o":"m 182 1010 l 182 921 q 167 835 182 881 q 125 747 152 790 q 57 673 97 704 l 24 706 q 95 805 68 747 q 123 921 123 863 l 123 1010 l 182 1010 z "},"'":{"ha":292,"x_min":117,"x_max":174,"o":"m 174 1010 l 174 684 l 117 684 l 117 1010 l 174 1010 z "},"\"":{"ha":503,"x_min":117,"x_max":385,"o":"m 174 1010 l 174 684 l 117 684 l 117 1010 l 174 1010 m 385 1010 l 385 684 l 327 684 l 327 1010 l 385 1010 z "},"“":{"ha":462,"x_min":69,"x_max":436,"o":"m 69 694 l 69 783 q 83 869 69 824 q 126 958 98 915 q 193 1032 153 1000 l 225 999 q 154 899 182 957 q 126 784 126 841 l 126 694 l 69 694 m 279 694 l 279 783 q 294 869 279 824 q 336 958 308 915 q 403 1032 364 1000 l 436 999 q 365 899 393 957 q 337 784 337 841 l 337 694 l 279 694 z "},"”":{"ha":462,"x_min":26,"x_max":393,"o":"m 183 1010 l 183 921 q 168 835 183 881 q 126 747 154 790 q 59 673 98 704 l 26 706 q 97 805 69 747 q 125 921 125 863 l 125 1010 l 183 1010 m 393 1010 l 393 921 q 379 835 393 881 q 336 747 364 790 q 269 673 308 704 l 236 706 q 307 805 279 747 q 335 921 335 863 l 335 1010 l 393 1010 z "},"„":{"ha":462,"x_min":26,"x_max":393,"o":"m 183 126 l 183 37 q 168 -49 183 -3 q 126 -137 154 -94 q 59 -211 98 -180 l 26 -178 q 97 -79 69 -137 q 125 37 125 -21 l 125 126 l 183 126 m 393 126 l 393 37 q 379 -49 393 -3 q 336 -137 364 -94 q 269 -211 308 -180 l 236 -178 q 307 -79 279 -137 q 335 37 335 -21 l 335 126 l 393 126 z "},"‚":{"ha":251,"x_min":25,"x_max":182,"o":"m 182 126 l 182 37 q 168 -49 182 -3 q 126 -137 153 -94 q 58 -211 98 -180 l 25 -178 q 96 -79 69 -137 q 124 37 124 -21 l 124 126 l 182 126 z "},"′":{"ha":252,"x_min":74,"x_max":178,"o":"m 74 667 l 110 1010 l 178 1010 l 117 667 l 74 667 z "},"″":{"ha":445,"x_min":74,"x_max":371,"o":"m 74 667 l 110 1010 l 178 1010 l 117 667 l 74 667 m 268 667 l 303 1010 l 371 1010 l 310 667 l 268 667 z "},",":{"ha":367,"x_min":111,"x_max":243,"o":"m 243 138 l 234 86 q 212 -28 225 36 q 184 -151 198 -92 q 158 -247 170 -211 l 111 -247 q 128 -160 118 -211 q 149 -46 138 -108 q 170 83 160 16 l 179 138 l 243 138 z "},".":{"ha":362,"x_min":128,"x_max":234,"o":"m 181 -6 q 143 9 159 -6 q 128 47 128 25 q 143 84 128 69 q 181 100 159 100 q 218 84 203 100 q 234 47 234 69 q 227 20 234 32 q 208 1 220 8 q 181 -6 196 -6 z "},"…":{"ha":1161,"x_min":124,"x_max":1030,"o":"m 177 -6 q 139 9 155 -6 q 124 47 124 25 q 139 84 124 69 q 177 100 155 100 q 215 84 199 100 q 230 47 230 69 q 223 20 230 32 q 204 1 216 8 q 177 -6 192 -6 m 577 -6 q 539 9 555 -6 q 524 47 524 25 q 539 84 524 69 q 577 100 555 100 q 615 84 599 100 q 630 47 630 69 q 623 20 630 32 q 604 1 616 8 q 577 -6 592 -6 m 977 -6 q 939 9 954 -6 q 923 47 923 25 q 939 84 923 69 q 977 100 954 100 q 1014 84 998 100 q 1030 47 1030 69 q 1023 20 1030 32 q 1003 1 1016 8 q 977 -6 991 -6 z "},":":{"ha":362,"x_min":128,"x_max":234,"o":"m 181 46 q 143 62 159 46 q 128 99 128 77 q 143 137 128 121 q 181 152 159 152 q 218 137 203 152 q 234 99 234 121 q 227 73 234 85 q 208 53 220 60 q 181 46 196 46 m 181 577 q 143 592 159 577 q 128 630 128 608 q 143 668 128 652 q 181 683 159 683 q 218 668 203 683 q 234 630 234 652 q 227 603 234 616 q 208 584 220 591 q 181 577 196 577 z "},";":{"ha":369,"x_min":111,"x_max":252,"o":"m 243 138 l 234 86 q 212 -28 225 36 q 184 -151 198 -92 q 158 -247 170 -211 l 111 -247 q 128 -160 118 -211 q 149 -46 138 -108 q 170 83 160 16 l 179 138 l 243 138 m 199 577 q 161 592 177 577 q 145 630 145 608 q 161 668 145 652 q 199 683 177 683 q 236 668 220 683 q 252 630 252 652 q 245 603 252 616 q 226 584 238 591 q 199 577 214 577 z "},"·":{"ha":362,"x_min":128,"x_max":234,"o":"m 181 389 q 143 404 159 389 q 128 442 128 420 q 143 479 128 464 q 181 495 159 495 q 218 479 203 495 q 234 442 234 464 q 227 415 234 427 q 208 396 220 403 q 181 389 196 389 z "},"‹":{"ha":484,"x_min":107,"x_max":365,"o":"m 365 109 l 306 109 l 107 404 l 107 414 l 166 414 l 365 109 m 365 714 l 166 408 l 107 408 l 107 418 l 306 714 l 365 714 z "},"›":{"ha":484,"x_min":115,"x_max":373,"o":"m 115 109 l 315 414 l 373 414 l 373 404 l 174 109 l 115 109 m 115 714 l 174 714 l 373 418 l 373 408 l 315 408 l 115 714 z "},"«":{"ha":736,"x_min":107,"x_max":618,"o":"m 365 109 l 306 109 l 107 404 l 107 414 l 166 414 l 365 109 m 365 714 l 166 408 l 107 408 l 107 418 l 306 714 l 365 714 m 618 109 l 559 109 l 360 404 l 360 414 l 418 414 l 618 109 m 618 714 l 418 408 l 360 408 l 360 418 l 559 714 l 618 714 z "},"»":{"ha":743,"x_min":115,"x_max":633,"o":"m 115 109 l 315 414 l 373 414 l 373 404 l 174 109 l 115 109 m 115 714 l 174 714 l 373 418 l 373 408 l 315 408 l 115 714 m 374 109 l 574 414 l 632 414 l 632 404 l 433 109 l 374 109 m 374 714 l 433 714 l 632 418 l 632 408 l 574 408 l 374 714 z "},"<":{"ha":894,"x_min":161,"x_max":733,"o":"m 161 371 l 161 418 l 733 760 l 733 693 l 230 394 l 235 403 l 235 386 l 230 395 l 733 96 l 733 29 l 161 371 z "},">":{"ha":894,"x_min":161,"x_max":733,"o":"m 733 371 l 161 29 l 161 96 l 664 395 l 659 386 l 659 403 l 664 394 l 161 693 l 161 760 l 733 418 l 733 371 z "},"=":{"ha":894,"x_min":189,"x_max":705,"o":"m 189 503 l 189 560 l 705 560 l 705 503 l 189 503 m 189 229 l 189 286 l 705 286 l 705 229 l 189 229 z "},"+":{"ha":894,"x_min":148,"x_max":746,"o":"m 418 95 l 418 694 l 476 694 l 476 95 l 418 95 m 148 365 l 148 424 l 746 424 l 746 365 l 148 365 z "},"−":{"ha":894,"x_min":151,"x_max":743,"o":"m 743 424 l 743 365 l 151 365 l 151 424 l 743 424 z "},"×":{"ha":894,"x_min":149,"x_max":745,"o":"m 705 96 l 149 653 l 189 693 l 745 137 l 705 96 m 189 96 l 149 137 l 705 693 l 745 653 l 189 96 z "},"÷":{"ha":894,"x_min":151,"x_max":743,"o":"m 743 424 l 743 365 l 151 365 l 151 424 l 743 424 m 447 107 q 410 122 425 107 q 394 160 394 138 q 410 197 394 182 q 447 213 425 213 q 484 197 469 213 q 500 160 500 182 q 484 122 500 138 q 447 107 469 107 m 447 577 q 420 584 433 577 q 401 603 408 591 q 394 630 394 615 q 410 667 394 652 q 447 683 425 683 q 484 667 469 683 q 500 630 500 652 q 484 592 500 608 q 447 577 469 577 z "},"±":{"ha":894,"x_min":150,"x_max":744,"o":"m 150 79 l 150 137 l 744 137 l 744 79 l 150 79 m 150 464 l 150 522 l 744 522 l 744 464 l 150 464 m 418 229 l 418 758 l 476 758 l 476 229 l 418 229 z "},"~":{"ha":894,"x_min":125,"x_max":769,"o":"m 125 321 q 154 412 128 375 q 220 469 180 449 q 308 487 260 488 q 397 467 359 487 q 473 418 436 447 q 531 380 505 394 q 589 365 556 366 q 672 396 638 365 q 713 477 705 426 l 769 472 q 737 382 763 419 q 673 328 712 346 q 590 309 635 309 q 509 328 544 309 q 436 376 473 347 q 375 415 403 400 q 309 431 347 431 q 221 401 256 431 q 182 318 186 372 l 125 321 z "},"¬":{"ha":713,"x_min":79,"x_max":635,"o":"m 635 546 l 635 487 l 79 487 l 79 546 l 635 546 m 635 519 l 635 254 l 569 254 l 569 519 l 635 519 z "},"_":{"ha":604,"x_min":-3,"x_max":607,"o":"m 607 0 l 607 -57 l -3 -57 l -3 0 l 607 0 z "},"^":{"ha":588,"x_min":62,"x_max":526,"o":"m 282 947 l 306 947 l 306 909 l 282 909 l 282 947 m 62 552 l 264 979 l 324 979 l 526 552 l 464 552 l 287 929 l 301 929 l 125 552 l 62 552 z "},"*":{"ha":694,"x_min":87,"x_max":607,"o":"m 321 442 l 324 685 l 114 561 l 87 607 l 300 726 l 87 845 l 114 891 l 324 767 l 321 1010 l 373 1010 l 371 767 l 581 891 l 607 845 l 394 726 l 607 607 l 581 561 l 371 685 l 373 442 l 321 442 z "},"®":{"ha":931,"x_min":71,"x_max":860,"o":"m 336 452 l 336 816 l 502 816 q 560 802 534 816 q 601 764 586 789 q 616 705 616 739 q 601 644 616 670 q 559 604 585 618 q 500 589 533 589 l 363 589 l 363 630 l 491 630 q 545 650 525 630 q 566 705 566 670 q 545 758 566 740 q 491 775 525 775 l 384 775 l 384 452 l 336 452 m 541 618 l 631 452 l 578 452 l 489 618 l 541 618 m 466 235 q 312 265 384 235 q 186 350 241 296 q 102 476 132 404 q 71 629 71 547 q 102 783 71 711 q 186 908 132 854 q 312 993 241 963 q 466 1024 384 1024 q 619 993 547 1024 q 745 908 690 963 q 830 783 799 854 q 860 629 860 711 q 830 476 860 547 q 745 350 799 404 q 619 265 690 296 q 466 235 547 235 m 466 288 q 638 333 560 288 q 762 457 716 379 q 807 629 807 535 q 761 801 807 724 q 638 925 715 879 q 466 971 560 971 q 293 925 371 971 q 170 802 216 879 q 124 629 124 724 q 170 457 124 535 q 293 333 216 379 q 466 288 371 288 z "},"©":{"ha":1271,"x_min":114,"x_max":1157,"o":"m 353 505 q 393 653 353 586 q 499 759 432 719 q 646 798 565 798 q 761 774 708 798 q 849 707 813 750 q 901 610 886 665 l 838 610 q 766 703 817 668 q 646 739 715 739 q 528 707 581 739 q 444 623 475 676 q 412 505 412 570 q 444 387 412 440 q 528 303 475 334 q 646 271 581 271 q 764 307 715 271 q 835 400 814 342 l 898 400 q 847 303 882 345 q 760 236 811 260 q 646 212 708 212 q 499 252 565 212 q 393 358 432 291 q 353 505 353 424 m 635 -16 q 433 25 528 -16 q 267 137 339 65 q 155 303 195 209 q 114 505 114 397 q 156 707 115 613 q 268 873 196 801 q 434 985 339 945 q 635 1026 528 1026 q 838 985 743 1026 q 1003 873 932 945 q 1115 707 1075 801 q 1156 505 1156 613 q 1116 303 1157 397 q 1004 137 1076 209 q 838 25 933 65 q 635 -16 743 -16 m 635 43 q 815 79 731 43 q 963 179 899 115 q 1062 326 1026 242 q 1097 505 1097 409 q 1060 685 1096 601 q 961 832 1024 768 q 815 931 898 895 q 635 967 731 967 q 456 931 540 967 q 310 832 373 895 q 210 684 247 768 q 174 505 174 600 q 209 326 173 410 q 308 179 245 243 q 456 79 372 115 q 635 43 540 43 z "},"™":{"ha":815,"x_min":55,"x_max":752,"o":"m 557 647 l 402 1010 l 446 1010 l 574 707 l 700 1010 l 745 1010 l 590 647 l 557 647 m 395 647 l 395 1010 l 436 1010 l 436 647 l 395 647 m 710 647 l 710 1010 l 752 1010 l 752 647 l 710 647 m 166 647 l 166 989 l 208 989 l 208 647 l 166 647 m 55 971 l 55 1010 l 318 1010 l 318 971 l 55 971 z "},"°":{"ha":631,"x_min":103,"x_max":528,"o":"m 316 597 q 209 626 257 597 q 132 703 160 654 q 103 809 103 751 q 132 916 103 868 q 209 993 160 965 q 316 1022 257 1022 q 423 993 374 1022 q 500 916 471 965 q 528 809 528 868 q 500 703 528 751 q 423 626 471 654 q 316 597 374 597 m 316 651 q 396 672 360 651 q 453 730 432 694 q 474 810 474 766 q 453 889 474 853 q 396 947 432 925 q 316 968 360 968 q 236 947 272 968 q 179 889 200 925 q 157 810 157 853 q 179 730 157 766 q 236 672 200 694 q 316 651 272 651 z "},"ª":{"ha":542,"x_min":78,"x_max":463,"o":"m 386 584 l 386 815 q 359 915 385 883 q 278 947 333 947 q 184 920 218 947 q 148 840 151 893 l 88 846 q 142 959 90 916 q 278 1002 193 1002 q 403 956 360 1002 q 446 815 446 910 l 446 602 q 450 537 446 567 q 463 481 454 508 l 400 481 q 389 531 393 504 q 386 584 385 558 m 400 769 l 400 724 l 290 724 q 177 696 214 724 q 140 618 140 668 q 166 549 140 575 q 241 523 193 524 q 299 533 270 523 q 353 561 328 543 q 395 601 377 579 l 406 561 q 327 494 367 518 q 231 470 286 470 q 120 510 161 470 q 78 617 78 550 q 132 730 79 691 q 290 769 185 769 l 400 769 z "},"º":{"ha":570,"x_min":65,"x_max":505,"o":"m 65 709 l 65 765 q 91 891 65 838 q 167 973 118 945 q 286 1002 217 1002 q 447 938 389 1002 q 505 765 505 874 l 505 709 q 478 582 505 635 q 403 500 452 529 q 285 471 354 471 q 124 535 182 471 q 65 709 65 599 m 124 765 l 124 709 q 166 574 124 624 q 285 523 209 524 q 404 573 362 523 q 445 709 445 623 l 445 765 q 403 899 445 849 q 286 949 362 949 q 166 899 209 949 q 124 765 124 849 z "},"¶":{"ha":791,"x_min":88,"x_max":645,"o":"m 645 953 l 479 953 l 479 375 l 422 375 q 240 416 314 375 q 127 529 165 457 q 88 692 88 601 q 127 855 88 783 q 240 968 165 927 q 422 1010 314 1010 l 645 1010 l 645 953 m 582 0 l 582 1010 l 645 1010 l 645 0 l 582 0 z "},"§":{"ha":746,"x_min":84,"x_max":661,"o":"m 601 795 l 543 795 q 496 918 540 868 q 373 968 453 968 q 283 946 321 968 q 225 889 246 925 q 205 813 205 854 q 225 741 205 771 q 276 688 245 711 q 343 644 308 665 l 462 574 q 531 531 496 554 q 596 481 566 509 q 643 420 625 454 q 661 341 661 385 q 639 264 661 299 q 581 206 618 229 q 500 180 544 184 l 500 178 q 588 91 565 132 q 612 2 612 51 q 580 -110 612 -64 q 492 -181 547 -157 q 369 -205 437 -205 q 241 -177 297 -205 q 152 -96 185 -148 q 116 27 118 -43 l 175 27 q 232 -101 179 -53 q 369 -149 285 -149 q 500 -110 446 -149 q 554 2 554 -70 q 539 63 554 37 q 492 115 524 90 q 408 172 460 141 l 288 241 q 201 296 239 270 q 137 350 163 323 q 98 408 111 377 q 84 476 84 439 q 104 555 84 518 q 159 615 124 591 q 243 640 195 638 l 243 644 q 172 718 198 678 q 146 813 146 758 q 176 920 146 872 q 256 996 205 968 q 373 1024 307 1024 q 491 995 441 1024 q 570 913 542 965 q 601 795 598 862 m 604 341 q 579 415 604 382 q 514 474 553 447 q 436 524 475 501 l 302 602 q 218 594 254 609 q 162 549 182 580 q 142 479 142 518 q 185 382 142 423 q 315 291 229 341 l 436 221 q 514 227 475 215 q 579 268 553 239 q 604 341 604 297 z "},"¹":{"ha":398,"x_min":60,"x_max":267,"o":"m 212 505 l 212 1053 l 206 1053 l 60 955 l 60 1016 l 204 1111 l 267 1111 l 267 505 l 212 505 z "},"²":{"ha":576,"x_min":78,"x_max":503,"o":"m 78 505 l 78 546 l 300 766 q 368 839 342 808 q 407 897 395 870 q 419 953 419 923 q 379 1038 419 1005 q 280 1072 340 1072 q 178 1036 217 1072 q 139 947 139 1000 l 83 947 q 139 1070 83 1021 q 280 1119 194 1119 q 381 1097 337 1119 q 449 1038 424 1075 q 474 953 474 1000 q 460 886 474 918 q 415 816 447 854 q 330 726 384 778 l 160 556 l 160 554 l 503 554 l 503 505 l 78 505 z "},"³":{"ha":580,"x_min":75,"x_max":508,"o":"m 291 497 q 181 519 230 497 q 104 577 132 540 q 75 663 75 615 l 132 663 q 179 579 133 611 q 291 546 225 546 q 407 582 362 546 q 451 670 451 618 q 402 759 451 725 q 274 794 353 794 l 245 794 l 245 840 l 274 840 q 385 871 340 840 q 431 957 431 903 q 392 1039 431 1006 q 291 1072 353 1072 q 187 1039 229 1072 q 144 953 145 1007 l 90 953 q 117 1040 90 1003 q 189 1098 144 1077 q 291 1119 234 1119 q 392 1098 348 1119 q 462 1041 436 1077 q 487 959 487 1005 q 452 869 487 906 q 363 821 417 833 l 363 817 q 469 764 431 804 q 508 667 508 723 q 480 581 508 619 q 403 520 452 542 q 291 497 355 497 z "},"⁴":{"ha":573,"x_min":61,"x_max":513,"o":"m 61 635 l 61 679 l 361 1111 l 398 1111 l 398 1037 l 371 1037 l 124 686 l 124 683 l 513 683 l 513 635 l 61 635 m 373 505 l 373 649 l 373 669 l 373 1111 l 429 1111 l 429 505 l 373 505 z "},"⁄":{"ha":379,"x_min":-188,"x_max":568,"o":"m -188 0 l 505 1010 l 568 1010 l -126 0 l -188 0 z "},"½":{"ha":1225,"x_min":43,"x_max":1160,"o":"m 167 0 l 860 1010 l 923 1010 l 229 0 l 167 0 m 186 473 l 186 952 l 181 952 l 43 860 l 43 920 l 179 1010 l 242 1010 l 242 473 l 186 473 m 774 0 l 774 41 l 975 234 q 1057 325 1034 292 q 1081 395 1081 359 q 1046 469 1081 440 q 957 498 1010 498 q 866 467 902 498 q 831 391 831 436 l 777 391 q 828 501 777 457 q 957 545 878 545 q 1084 502 1034 545 q 1134 395 1134 459 q 1122 335 1134 363 q 1081 274 1109 307 q 1004 194 1052 240 l 854 50 l 854 47 l 1160 47 l 1160 0 l 774 0 z "},"¼":{"ha":1136,"x_min":43,"x_max":1083,"o":"m 167 0 l 860 1010 l 923 1010 l 229 0 l 167 0 m 186 473 l 186 952 l 181 952 l 43 860 l 43 920 l 179 1010 l 242 1010 l 242 473 l 186 473 m 671 112 l 671 156 l 941 537 l 977 537 l 977 466 l 950 466 l 732 162 l 732 160 l 1082 160 l 1082 112 l 671 112 m 953 0 l 953 128 l 954 146 l 954 537 l 1006 537 l 1006 0 l 953 0 z "},"¾":{"ha":1272,"x_min":67,"x_max":1219,"o":"m 304 0 l 997 1010 l 1059 1010 l 366 0 l 304 0 m 808 112 l 808 156 l 1078 537 l 1114 537 l 1114 466 l 1087 466 l 870 162 l 870 160 l 1219 160 l 1219 112 l 808 112 m 1090 0 l 1090 128 l 1091 146 l 1091 537 l 1143 537 l 1143 0 l 1090 0 m 264 466 q 163 485 208 466 q 93 538 119 504 q 67 615 67 572 l 123 615 q 164 542 123 570 q 264 513 204 513 q 366 545 327 513 q 405 621 405 576 q 361 698 405 668 q 249 727 318 727 l 222 727 l 222 770 l 249 770 q 348 798 308 770 q 388 872 388 826 q 354 943 388 914 q 264 971 319 971 q 172 943 209 971 q 135 870 135 915 l 80 870 q 105 946 80 913 q 170 999 129 980 q 264 1018 212 1018 q 356 999 316 1018 q 419 948 397 981 q 442 874 442 915 q 412 796 442 829 q 329 752 381 763 l 329 750 q 426 703 391 739 q 461 618 461 668 q 436 540 461 575 q 366 486 411 506 q 264 466 322 466 z "},"%":{"ha":1091,"x_min":112,"x_max":979,"o":"m 627 185 l 627 224 q 650 327 627 282 q 711 398 672 372 q 803 424 751 424 q 896 398 856 424 q 957 327 935 372 q 979 224 979 282 l 979 185 q 957 83 979 128 q 895 12 935 37 q 803 -14 856 -14 q 711 12 751 -14 q 650 83 672 37 q 627 185 627 128 m 682 224 l 682 185 q 715 78 682 120 q 803 36 748 36 q 892 78 859 36 q 925 185 925 120 l 925 224 q 892 332 925 290 q 803 374 859 374 q 715 332 749 374 q 682 224 682 290 m 112 786 l 112 825 q 135 927 112 882 q 197 998 157 973 q 289 1024 236 1024 q 381 998 341 1024 q 442 927 420 973 q 464 825 464 882 l 464 786 q 442 683 464 728 q 381 612 420 638 q 289 586 341 586 q 197 612 236 586 q 135 683 157 638 q 112 786 112 728 m 167 825 l 167 786 q 200 678 167 720 q 289 636 233 636 q 377 678 344 636 q 410 786 410 720 l 410 825 q 377 932 410 890 q 289 975 344 975 q 200 932 234 975 q 167 825 167 890 m 166 0 l 859 1010 l 921 1010 l 228 0 l 166 0 z "},"´":{"ha":690,"x_min":310,"x_max":513,"o":"m 310 866 l 442 1084 l 513 1084 l 365 866 l 310 866 z "},"`":{"ha":690,"x_min":239,"x_max":442,"o":"m 387 866 l 239 1084 l 310 1084 l 442 866 l 387 866 z "},"¨":{"ha":884,"x_min":284,"x_max":600,"o":"m 331 892 q 298 906 313 892 q 284 939 284 920 q 298 973 284 959 q 331 986 313 986 q 365 973 351 986 q 379 939 379 959 q 365 906 379 920 q 331 892 351 892 m 552 892 q 519 906 534 892 q 505 939 505 920 q 519 973 505 959 q 552 986 534 986 q 586 973 572 986 q 600 939 600 959 q 586 906 600 920 q 552 892 572 892 z "},"ˆ":{"ha":600,"x_min":105,"x_max":495,"o":"m 433 840 l 300 988 l 167 840 l 105 840 l 105 846 l 280 1038 l 320 1038 l 495 846 l 495 840 l 433 840 z "},"˜":{"ha":692,"x_min":114,"x_max":578,"o":"m 165 876 l 114 880 q 157 971 118 936 q 251 1007 196 1007 q 306 995 283 1007 q 350 969 330 984 q 391 943 370 955 q 439 932 412 932 q 497 953 471 932 q 527 1008 522 975 l 578 1000 q 531 911 571 945 q 441 877 492 877 q 386 889 409 877 q 345 915 364 900 q 304 941 326 929 q 253 952 283 952 q 193 930 218 952 q 165 876 168 908 z "},"¯":{"ha":479,"x_min":57,"x_max":422,"o":"m 422 965 l 422 911 l 57 911 l 57 965 l 422 965 z "},"˚":{"ha":365,"x_min":48,"x_max":317,"o":"m 183 849 q 115 866 145 849 q 66 914 84 884 q 48 980 48 944 q 66 1047 48 1017 q 115 1095 84 1077 q 183 1113 145 1113 q 251 1095 220 1113 q 299 1047 281 1077 q 317 980 317 1017 q 299 914 317 944 q 251 866 281 884 q 183 849 220 849 m 183 895 q 244 920 219 895 q 268 980 268 945 q 244 1040 268 1015 q 183 1066 219 1066 q 122 1040 146 1066 q 97 980 97 1015 q 122 920 97 945 q 183 895 146 895 z "},"¸":{"ha":313,"x_min":116,"x_max":281,"o":"m 132 4 l 185 4 l 178 -36 q 253 -72 224 -43 q 281 -150 281 -101 q 240 -237 281 -207 q 123 -268 200 -267 l 121 -221 q 199 -204 173 -220 q 225 -152 224 -187 q 198 -94 224 -112 q 116 -74 171 -75 l 132 4 z "}," ":{"ha":391,"x_min":0,"x_max":0,"o":""}," ":{"ha":391,"x_min":0,"x_max":0,"o":""}," ":{"ha":694,"x_min":0,"x_max":0,"o":""}," ":{"ha":253,"x_min":0,"x_max":0,"o":""},"​":{"ha":0,"x_min":0,"x_max":0,"o":""},"↑":{"ha":1326,"x_min":220,"x_max":1105,"o":"m 634 0 l 634 908 l 261 534 l 220 574 l 663 1016 l 1105 574 l 1065 534 l 691 908 l 691 0 l 634 0 z "},"↓":{"ha":1326,"x_min":221,"x_max":1106,"o":"m 691 1010 l 691 103 l 1065 476 l 1106 436 l 663 -6 l 221 436 l 260 476 l 634 103 l 634 1010 l 691 1010 z "},"Ð":{"ha":994,"x_min":-20,"x_max":900,"o":"m 426 0 l 180 0 l 180 57 l 424 57 q 652 111 559 57 q 792 266 744 165 q 839 509 839 367 q 793 747 839 648 q 660 900 747 846 q 445 953 572 953 l 178 953 l 178 1010 l 448 1010 q 691 950 590 1010 q 846 778 792 890 q 900 509 900 665 q 843 235 899 348 q 682 60 788 121 q 426 0 577 0 m 208 1010 l 208 0 l 146 0 l 146 1010 l 208 1010 m -20 490 l -20 541 l 374 541 l 374 490 l -20 490 z "},"ʻ":{"ha":344,"x_min":101,"x_max":262,"o":"m 101 672 l 101 781 q 115 884 101 835 q 158 976 130 933 q 225 1057 185 1020 l 262 1024 q 192 916 218 974 q 166 785 166 859 l 166 672 l 101 672 z "},"﻿":{"ha":0,"x_min":0,"x_max":0,"o":""}}}
